<?xml version="1.0" standalone="no"?>
<!DOCTYPE svg PUBLIC "-//W3C//DTD SVG 1.1//EN" "http://www.w3.org/Graphics/SVG/1.1/DTD/svg11.dtd" >
<svg xmlns="http://www.w3.org/2000/svg">
<metadata></metadata>
<defs>
<font id="formatalight_italic" horiz-adv-x="1110" >
<font-face units-per-em="2048" ascent="1526" descent="-522" />
<missing-glyph horiz-adv-x="598" />
<glyph horiz-adv-x="2048" />
<glyph horiz-adv-x="2048" />
<glyph unicode="&#xd;" horiz-adv-x="681" />
<glyph unicode=" "  horiz-adv-x="598" />
<glyph unicode="&#x09;" horiz-adv-x="598" />
<glyph unicode="&#xa0;" horiz-adv-x="598" />
<glyph unicode="!" horiz-adv-x="512" d="M80 8q23 78 35 162l20 16l160 7l12 -17l-37 -162l-18 -14l-162 -6zM209 389l51 240l62 297q59 289 116 604l15 14l141 2l12 -16l-106 -381l-62 -244q-43 -162 -86 -352q-6 -27 -16 -79t-14 -79l-15 -14l-90 -2z" />
<glyph unicode="&#x22;" horiz-adv-x="811" d="M219 1442q0 45 28.5 68.5t65.5 23.5q92 0 86 -100l-71 -523h-39l-68 496q-2 16 -2 35zM604 1442q0 45 27.5 68.5t66.5 23.5q90 0 86 -100l-73 -523h-39l-66 496q-2 16 -2 35z" />
<glyph unicode="#" horiz-adv-x="1366" d="M88 530v111h361l26 199h-342v116h356l66 494h129l-70 -494h205l66 494h121l-68 -494h344v-116h-358l-27 -199h344v-111h-356l-76 -530h-123l78 530h-209l-78 -530h-119l74 530h-344zM569 641h207l27 199h-205z" />
<glyph unicode="$" horiz-adv-x="980" d="M-68 115l54 106l18 2q39 -53 61.5 -72.5t77.5 -41.5l287 598l-24 18q-66 47 -100 75.5t-73.5 96.5t-39.5 145q0 90 39.5 166t97.5 123q117 98 313 99q39 0 121 -11l61 140l19 12l92 2l10 -12l-86 -170q86 -37 158 -103l6 -18l-47 -99l-21 -2q-57 80 -145 117l-246 -522 l31 -25q63 -47 101 -80.5t80 -107.5t42 -156q0 -166 -135 -296t-352 -130q-59 0 -137 11l-78 -168l-19 -11h-92l-8 15q55 100 94 186q-96 39 -158 94zM244 80q61 -8 78 -8q98 0 174.5 34.5t116.5 88t59.5 103.5t19.5 93q0 61 -35.5 117.5t-64.5 79t-82 59.5zM322 1055 q0 -53 28.5 -100.5t56 -72t78.5 -59.5l232 490q-57 10 -90 10q-137 0 -221 -82t-84 -186z" />
<glyph unicode="%" horiz-adv-x="1878" d="M104 766q0 43 7.5 105.5t35 162t70.5 179t127 138t195 58.5q109 0 180 -63q84 -78 84 -236q0 -39 -8 -117q-31 -231 -134.5 -381.5t-289.5 -150.5q-74 0 -127.5 26.5t-79 60.5t-40.5 83t-17.5 76.5t-2.5 58.5zM205 758q0 -215 166 -215q213 0 299 342q33 135 32 227 q0 98 -40.5 156.5t-124.5 58.5q-96 0 -168 -73.5t-104 -179t-46 -186.5t-14 -130zM434 12q29 47 127 185q20 31 59 91t58 91l360 555q170 266 275 440l24 15q53 0 90 4l11 -15q-105 -151 -287 -430l-317 -493q-129 -205 -150 -238l-127 -203l-20 -14q-57 0 -95 -2zM1061 285 q0 43 7 105.5t34.5 160.5t71 178t127 138.5t194.5 58.5q106 0 178 -64q84 -74 84 -233q0 -39 -8 -117q-31 -233 -134.5 -384t-289.5 -151q-86 0 -144.5 35t-82 91.5t-30.5 97.5t-7 84zM1161 276q0 -217 166 -217q211 1 297 347q33 131 33 225q0 98 -41 155.5t-125 57.5 q-96 0 -167 -73t-102.5 -178.5t-46 -186t-14.5 -130.5z" />
<glyph unicode="&#x26;" horiz-adv-x="1193" d="M-20 319q0 76 28.5 142.5t64.5 110.5t105.5 92.5t112.5 72t125 64.5q-35 74 -51.5 113.5t-33 100t-16.5 113.5q0 156 105.5 253.5t265.5 97.5q145 0 230 -85t85 -206q0 -147 -137 -266q-51 -45 -105 -77t-175 -89q94 -188 104 -199q61 -119 113 -199q115 115 200 279 l17 4l61 -106v-19q-100 -137 -217 -262q68 -115 148 -240l-11 -14l-141 -4l-12 10l-82 158q-43 -39 -71.5 -60.5t-85 -55.5t-124 -50t-145.5 -16q-166 0 -262 98t-96 239zM109 332q0 -100 70.5 -168t178.5 -68q191 0 351 166q-123 217 -140 252q-18 31 -102 186 q-53 -25 -86 -42t-91.5 -55t-92 -72.5t-61 -88t-27.5 -110.5zM446.5 1136.5q0.5 -102.5 88.5 -282.5q61 31 96 48.5t88 51t81.5 64.5t51 75t22.5 91q0 76 -52 132t-140 56q-100 0 -168 -66.5t-67.5 -169z" />
<glyph unicode="'" horiz-adv-x="425" d="M219 1442q0 45 28.5 68.5t65.5 23.5q92 0 86 -100l-71 -523h-39l-68 496q-2 16 -2 35z" />
<glyph unicode="(" horiz-adv-x="811" d="M109 336q0 336 171 636t457 501q16 14 74.5 50t67.5 38l22 6h96l4 -19q-305 -199 -483 -446q-133 -184 -197.5 -395t-64.5 -402q0 -297 135 -534q63 -113 162 -199l-4 -16h-92l-15 6q-55 47 -83.5 75.5t-73.5 93t-82 146.5q-94 207 -94 459z" />
<glyph unicode=")" horiz-adv-x="811" d="M-272 -426q199 125 345 282.5t220 292t118 280.5t53 228t9 160q0 211 -74 406q-78 201 -225 327l6 17h90l17 -6q94 -76 153 -160q180 -260 181 -615q0 -324 -165 -625.5t-466 -512.5q-113 -82 -140 -86l-22 -6h-96z" />
<glyph unicode="*" horiz-adv-x="894" d="M135 997l6 15l326 143q-172 102 -260 150l-6 16l59 86l14 2q115 -94 248 -184q33 172 51 323l15 17l106 2l13 -13q-47 -139 -97 -325l293 180l17 -4l41 -92l-11 -19q-125 -53 -315 -143l258 -147l4 -17l-59 -86l-19 -2q-137 104 -244 178l-49 -323l-16 -17l-107 -4 l-10 15l96 329q-109 -61 -296 -176l-17 2z" />
<glyph unicode="+" horiz-adv-x="1366" d="M59 535v122h537v533h123v-533h534v-122h-534v-535h-123v535h-537z" />
<glyph unicode="," horiz-adv-x="425" d="M-182 -317q88 195 198 491l19 14l158 9l6 -19q-74 -115 -209 -364l-68 -127l-20 -15l-74 -2z" />
<glyph unicode="-" horiz-adv-x="598" d="M-10 532l33 95l20 16l170 -4h113l198 4l11 -12l-35 -105l-19 -10l-194 2h-105l-182 -2z" />
<glyph unicode="." horiz-adv-x="425" d="M-43 8q23 80 37 162l18 16l158 9l12 -17q-27 -109 -35 -164l-20 -14l-160 -6z" />
<glyph unicode="/" horiz-adv-x="894" d="M-254 -262q61 84 82 115q168 240 334 499l346 537q180 274 231 358q6 6 44 71.5t82 139.5t59 94l24 17h117l8 -21q-88 -123 -209 -307q-114 -181 -155 -242l-428 -657q-201 -311 -328 -514q-12 -20 -59 -98l-25 -13h-115z" />
<glyph unicode="0" horiz-adv-x="1193" d="M57 432q0 152 46.5 341.5t115.5 320.5q94 178 228.5 252.5t273.5 74.5q176 0 285 -108q113 -119 112 -348q0 -62 -12 -177q-23 -160 -66 -296t-116.5 -259.5t-193.5 -195.5t-275 -72q-135 0 -230 64q-168 115 -168 403zM188 414q0 -147 54 -234q74 -115 217 -114 q338 -1 479 548q51 201 51 363q0 150 -63 237q-74 104 -207 105q-166 0 -291 -137q-102 -115 -171 -345.5t-69 -422.5z" />
<glyph unicode="1" horiz-adv-x="1193" d="M395 12q57 223 117 496l57 252l117 526l-211 -35l-12 13l22 88l17 14q215 25 342 47l12 -14q-74 -279 -121 -496l-73 -330l-117 -559l-15 -12l-124 -4z" />
<glyph unicode="2" horiz-adv-x="1193" d="M-96 25q27 23 98.5 79t97.5 78l238 191q248 197 375 317q215 201 215 348q0 92 -76 177t-240 85q-88 0 -172 -33.5t-121.5 -63t-95.5 -81.5l-16 8l43 160l14 17q172 111 363 110q199 0 316.5 -104.5t117.5 -261.5q0 -86 -36 -167t-124 -174.5t-173 -166t-243 -199.5 l-292 -233q303 -2 714 10l11 -12l-33 -99l-19 -10h-954z" />
<glyph unicode="3" horiz-adv-x="1193" d="M-35 119l33 104l12 4q31 -31 52.5 -48t65.5 -45t103.5 -42t130.5 -14q203 0 328 118.5t125 274.5q0 119 -84 191.5t-207 72.5q-70 0 -192 -41l-13 19q90 94 328 331q12 14 103.5 108.5t126.5 133.5l-615 -8l-12 14l29 82l14 17q377 -4 412 -5q70 0 205.5 1.5t203.5 1.5 l6 -21q-109 -104 -338 -344q-100 -106 -190 -197q82 4 145 -22q205 -84 205 -330q0 -213 -160.5 -359.5t-419.5 -146.5q-154 0 -276 56q-68 31 -115 75z" />
<glyph unicode="4" horiz-adv-x="1193" d="M2 418l25 78l14 22q391 420 786 856l23 15l182 2l12 -13q-6 -23 -84.5 -373t-113.5 -493h196l11 -12l-25 -80l-18 -14h-189q-45 -195 -82 -392l-18 -16l-111 -4l-12 14q53 209 94 398h-332l-350 -5zM182 512h537l127 532l67 273q-96 -102 -204 -225z" />
<glyph unicode="5" horiz-adv-x="1193" d="M8 98l31 107l14 4q72 -63 129 -88q100 -41 207 -41q201 0 330 126t129 308q0 150 -88 224.5t-221 74.5q-176 0 -334 -113l-15 13l80 272q55 184 105 389l18 12q55 0 178 -1t185 -1q229 0 342 2l12 -10l-29 -88l-16 -12l-285 2h-303l-112 -399q123 41 233 41 q166 0 274.5 -112t108.5 -284q0 -215 -158.5 -384t-433.5 -169q-131 0 -246 39q-57 20 -131 72z" />
<glyph unicode="6" horiz-adv-x="1193" d="M94 451q0 100 22.5 220t79 254t137.5 241.5t210 179t284 71.5q117 0 224 -41q53 -20 104 -61l8 -17l-35 -102l-16 -4q-111 115 -281 115q-377 0 -540 -486q-6 -20 -17.5 -59t-17.5 -57q0 2 36 32.5t52 42.5q139 92 289 92q168 0 280.5 -106.5t112.5 -298.5 q0 -213 -144.5 -354.5t-353.5 -141.5q-197 0 -315.5 122t-118.5 358zM219 436q0 -193 95 -276.5t212 -83.5q174 0 272.5 120.5t98.5 266.5q0 129 -79 212t-208 83q-152 0 -278 -103q-39 -35 -105 -110q-8 -12 -8 -109z" />
<glyph unicode="7" horiz-adv-x="1193" d="M145 0l304 446l559 836q-428 0 -815 -10l-9 10l35 96l17 11l348 -3h331h293l4 -16q-16 -25 -47.5 -72t-57.5 -84.5t-48 -70.5q-160 -231 -344 -518q-303 -477 -332 -525q-41 -66 -59 -98l-21 -12l-151 -4z" />
<glyph unicode="8" horiz-adv-x="1193" d="M41 352q0 133 78 248q43 59 102.5 97t93 48.5t91.5 22.5q-166 84 -166 272q0 152 122.5 264.5t337.5 112.5q166 0 282 -85t116 -242q0 -119 -78 -213q-69 -87 -219 -132q51 -23 76 -40q137 -94 137 -289q0 -174 -137.5 -309.5t-382.5 -135.5q-188 0 -301 80 q-152 109 -152 301zM176 356q0 -119 82 -200.5t240 -81.5q168 0 274.5 102.5t101.5 253.5q-2 135 -93 202.5t-216 67.5q-131 0 -235 -61q-80 -49 -117 -129t-37 -154zM375 1032q0 -100 70.5 -163.5t191.5 -63.5q154 0 240 86t86 198.5t-75 169t-186 56.5q-90 0 -156.5 -27.5 t-98 -63.5t-49 -83t-20.5 -68.5t-3 -40.5z" />
<glyph unicode="9" horiz-adv-x="1193" d="M18 90l35 103l15 4q113 -117 288 -117q180 0 314 123q92 82 159 221q39 74 95 260q-59 -55 -64 -57q-141 -111 -311 -111t-281.5 106.5t-111.5 295.5q0 221 145 360t361 139q150 0 249 -70.5t137.5 -171t38.5 -227.5q0 -96 -21.5 -214t-75.5 -255t-134 -247.5 t-212 -185.5t-294 -75q-117 0 -221 41q-59 23 -102 62zM283 928q0 -117 72.5 -207t217.5 -90q63 0 127 21.5t107 51t79 63.5t51 53.5t17 23.5q0 12 2 33.5t3.5 40t1.5 34.5q0 102 -31 178t-81 113t-97 53.5t-95 16.5q-96 0 -171.5 -39t-117.5 -100.5t-63.5 -125 t-21.5 -120.5z" />
<glyph unicode=":" horiz-adv-x="512" d="M43 10q25 86 37 160l20 16l158 7l12 -15q-20 -78 -37 -164l-20 -14l-160 -4zM240 864l36 162l19 14l162 7l12 -13l-37 -162l-18 -18l-164 -4z" />
<glyph unicode=";" horiz-adv-x="512" d="M-104 -319q139 330 202 493l19 12l153 7l6 -19q-63 -102 -81 -135q-182 -342 -193 -352l-20 -17l-76 -2zM258 864q23 84 37 162l18 14l160 9l12 -15l-36 -162l-17 -18l-164 -6z" />
<glyph unicode="&#x3c;" horiz-adv-x="1366" d="M14 653v144l1366 655v-131l-1228 -596l1228 -600v-131z" />
<glyph unicode="=" horiz-adv-x="1366" d="M-27 354v121h1366v-121h-1366zM-27 715v121h1366v-121h-1366z" />
<glyph unicode="&#x3e;" horiz-adv-x="1366" d="M14 -6v131l1229 600l-1229 596v131l1366 -655v-144z" />
<glyph unicode="?" horiz-adv-x="768" d="M109 10q23 76 34 160l21 16l162 7l10 -13q-25 -84 -37 -166l-18 -14l-160 -4zM152 1364l32 113l17 22q125 76 291 76q164 0 255 -86t91 -223q0 -82 -37 -164t-73 -128t-110 -132l-65 -70q-104 -117 -143 -185.5t-62 -180.5l-22 -19l-93 -4l-14 14q37 147 76 221t147 199 l37 37q68 80 103.5 124t76.5 128t41 156q0 76 -53 137t-182 61q-72 0 -129 -16.5t-87 -33.5t-79 -54z" />
<glyph unicode="@" horiz-adv-x="1835" d="M145 477q0 252 118 475.5t338 364.5t489 141q276 0 442 -159.5t166 -428.5q0 -182 -67.5 -351t-176 -271.5t-223.5 -102.5q-104 0 -148 84q-16 35 -16 107q-133 -188 -307 -189q-111 0 -186.5 83t-75.5 243q0 229 130 405.5t298 176.5q172 0 243 -195l35 148h119 l-66 -301q-59 -287 -59 -355q0 -106 74 -106q47 0 105.5 51t108.5 134t84 200t34 235q0 246 -148.5 374t-374.5 128q-231 0 -426.5 -125t-305 -329.5t-109.5 -434.5q0 -164 59 -291t159.5 -201.5t219.5 -112.5t250 -38q266 0 512 152q90 57 182 145l55 -63 q-330 -324 -747 -324q-145 0 -280.5 43t-250 128t-184.5 229.5t-70 330.5zM637 481q0 -96 46 -159.5t132 -63.5q109 0 199 111q49 59 76.5 148t31.5 130t4 64q2 113 -53 174t-131 61q-133 0 -219 -148.5t-86 -316.5z" />
<glyph unicode="A" horiz-adv-x="1150" d="M-164 18l275 486l245 444l273 492l16 10l176 4l10 -8q41 -485 156 -1434l-12 -12l-121 -4l-14 14l-23 275l-18 196h-566l-86 -164q-135 -258 -157 -303l-15 -10l-133 -2zM293 594q164 -4 250 -4q82 0 245 4l-47 471l-28 305z" />
<glyph unicode="B" horiz-adv-x="1193" d="M0 12l68 277l63 291q115 496 182 854l17 12l121 4l108 2q27 0 78 1t76 1q219 0 305 -72q100 -80 100 -223q0 -100 -51 -203.5t-172 -160.5q-53 -20 -121 -35q8 -2 23.5 -4t23.5 -2q82 -18 151.5 -92t69.5 -199q0 -137 -65.5 -233.5t-157.5 -147.5q-66 -37 -165 -55.5 t-183 -21.5t-254 -5h-82l-125 -2zM164 113h100q47 -1 87 -1q80 0 133 3q79 4 175.5 30.5t151.5 79.5q92 92 92 234q0 158 -153 209q-76 24 -311 24h-54l-96 -2l-62 -276q-39 -166 -63 -301zM313 801l68 -2q123 2 186.5 5t156.5 28.5t148 74.5q109 98 109 234q0 137 -129 186 q-41 15 -93 19q-33 2 -107 3q-42 0 -97 -1l-117 -5l-55 -237z" />
<glyph unicode="C" horiz-adv-x="1236" d="M76 575q0 113 27.5 232t92 239.5t157.5 216t236.5 155t315.5 59.5q100 0 184.5 -21.5t122 -41t95.5 -54.5l6 -17l-39 -108l-19 -4q-41 37 -73 57q-115 74 -281 74q-160 0 -294 -72.5t-218 -188.5t-131 -255t-47 -277q0 -205 124 -344t351 -139q213 0 395 150l15 -9 l-47 -155l-15 -17q-160 -86 -364 -86q-270 0 -432 159t-162 447z" />
<glyph unicode="D" horiz-adv-x="1409" d="M2 10l68 297l98 422q98 446 147 707l17 12l123 -2h120q98 4 146 4q299 0 436 -111q176 -141 176 -430q0 -184 -78.5 -377.5t-212.5 -320.5q-78 -74 -167 -120t-199.5 -64.5t-185 -22.5t-209.5 -4h-271zM164 111l117 -2q326 4 454 55q145 55 253 184t158 279.5t50 302.5 q0 244 -174 348q-76 46 -173 58q-69 9 -183 8q-46 0 -99 -1l-127 -2l-110 -483q-94 -391 -166 -747z" />
<glyph unicode="E" horiz-adv-x="1067" d="M0 8l98 414l72 315l145 701l17 8h250l243 2l291 4l12 -12l-28 -94l-19 -13l-645 8l-119 -530h345l288 4l8 -14l-26 -88l-19 -13l-258 5l-360 -5l-49 -223l-80 -364h283l393 8l10 -15l-29 -96l-14 -10h-137h-252l-410 -6z" />
<glyph unicode="F" horiz-adv-x="937" d="M0 12q41 154 90 373l92 408q25 127 45 213q61 274 88 432l17 8h483l285 4l10 -8l-31 -99l-12 -10q-282 6 -516 6h-115l-121 -548q244 0 531 10l10 -13q-20 -51 -31 -94l-14 -12q-179 3 -350 3q-86 0 -170 -1l-53 -238l-88 -432l-15 -12l-125 -4z" />
<glyph unicode="G" horiz-adv-x="1409" d="M72 569q0 176 74.5 363.5t224.5 335.5q86 84 229 146.5t330 62.5q106 0 194 -21.5t125 -42t99 -59.5l4 -21l-37 -106l-19 -4q-80 80 -174 108q-96 31 -207 31q-231 0 -407 -141q-156 -125 -227.5 -319.5t-71.5 -344.5q0 -78 22.5 -152.5t74.5 -150.5t157.5 -122t251 -46 t274.5 51l39 154q45 193 76 401l14 10l135 3l9 -13q-53 -201 -78 -303q-27 -106 -76 -323l-10 -15q-186 -82 -385 -82q-270 0 -426 117q-215 160 -215 483z" />
<glyph unicode="H" horiz-adv-x="1409" d="M0 10l61 250l97 424q92 414 159 752l15 12l125 2l10 -10l-105 -439l-34 -157q209 -4 303 -4q168 0 499 8l52 229l71 359l17 12l125 2l10 -10l-68 -291l-77 -332q-78 -340 -170 -805l-15 -10l-125 -4l-10 12q98 403 166 723q-57 0 -174 1t-176 1q-178 0 -455 -6 q-23 -92 -51 -225q-16 -72 -52 -251t-48 -241l-17 -12l-123 -2z" />
<glyph unicode="I" horiz-adv-x="468" d="M0 10l66 269l96 428q80 360 153 729l15 12l129 2l8 -10l-180 -783l-39 -178l-94 -467l-17 -10l-127 -4z" />
<glyph unicode="J" horiz-adv-x="681" d="M-154 47l23 115l16 2q78 -55 174 -55q121 0 168 76.5t101 297.5l96 447l102 506l17 12l127 4l8 -12q-68 -276 -127 -539l-80 -360q-6 -29 -18.5 -84.5t-18.5 -83.5q-16 -70 -29.5 -115t-43 -102.5t-66.5 -90t-98.5 -56t-141.5 -23.5q-98 0 -192 39z" />
<glyph unicode="K" horiz-adv-x="1150" d="M2 12l119 512l55 238q76 338 141 674l13 12l125 4l8 -12q-84 -346 -154 -668l451 416q246 229 270 254l19 4h155l6 -10q-96 -86 -125 -109q-14 -12 -50 -45t-50 -45l-518 -471l264 -387q18 -25 82 -115t112 -156.5t62 -87.5l-10 -18l-148 -4l-14 10l-182 279l-326 479 l-84 -383l-76 -369l-14 -12l-121 -4z" />
<glyph unicode="L" horiz-adv-x="937" d="M2 10l104 449l93 409l120 570l13 10l129 4l10 -14l-127 -527l-94 -415q-8 -35 -26.5 -117t-33 -150.5t-22.5 -117.5h88q226 0 518 8l10 -15l-30 -96l-15 -12l-239 4h-271l-217 -2z" />
<glyph unicode="M" horiz-adv-x="1662" d="M-51 14l114 383l150 514l143 531l17 4h184l12 -8l31 -387l41 -510l29 -424l506 907q31 53 153 272q41 68 78 144l18 8l197 4l12 -14l-108 -529l-74 -362q-57 -283 -80 -424q-12 -70 -16 -105l-17 -16l-120 -4l-19 16l84 375l94 440l119 533l-514 -909 q-172 -305 -252 -439l-16 -14h-152l-10 14l-27 310l-82 1026l-79 -308l-160 -575l-119 -457l-12 -10h-115z" />
<glyph unicode="N" horiz-adv-x="1409" d="M2 10l137 582l54 250l124 594l15 12l180 4l18 -10l109 -326l205 -596l139 -416l188 877l95 457l14 10l113 2l10 -12l-111 -473l-100 -455l-102 -496l-17 -12l-174 -4l-16 12l-92 277l-365 1071l-199 -922l-88 -424l-14 -12l-113 -2z" />
<glyph unicode="O" horiz-adv-x="1492" d="M70 532q0 111 25.5 233t86 250t147.5 229.5t222 167t299 65.5q250 0 407.5 -146.5t157.5 -419.5q0 -141 -41 -286q-70 -256 -209 -416q-211 -240 -530 -240q-240 0 -402.5 143.5t-162.5 419.5zM213 535q0 -211 104 -328q115 -129 320 -129q242 0 400.5 181.5t217.5 455.5 q23 102 23 194q0 217 -118 338t-314 121q-158 0 -286 -87t-199.5 -219t-109.5 -269.5t-38 -257.5z" />
<glyph unicode="P" horiz-adv-x="1067" d="M4 12l94 404l49 219q10 53 35 160.5t35 160.5q61 266 100 478l15 12l114 2l129 2h49q118 0 191 -8q88 -10 156 -51q149 -95 149 -296q0 -179 -114 -317q-102 -119 -242.5 -152.5t-378.5 -37.5h-115l-69 -322l-49 -252l-17 -14l-119 -2zM295 696h57q285 0 400 47 q76 31 128 81t73.5 103.5t28.5 89.5t7 66q0 125 -76 193q-78 70 -276 70q-18 0 -58 -1.5t-61 -1.5l-80 -2l-47 -206z" />
<glyph unicode="Q" horiz-adv-x="1492" d="M93.5 766.5q25.5 120.5 86 248.5t146.5 229.5t222 167t300 65.5q252 0 408.5 -146.5t156.5 -417.5q0 -133 -41 -290.5t-117 -282.5q-51 -82 -105 -143.5t-111.5 -98.5t-91.5 -53t-83 -37q213 -70 461 -131l2 -16l-98 -103l-19 -6q-283 117 -571 217q-231 0 -371 111 q-200 159 -200 452q0 114 25.5 234.5zM209 535q0 -125 37 -217.5t99.5 -142.5t134 -73.5t153.5 -23.5q106 0 198.5 38t160 99t121.5 145t87 172.5t53 182.5q23 106 23 196q0 227 -124 342t-306 115q-160 0 -288 -87t-200.5 -219t-110.5 -269.5t-38 -257.5z" />
<glyph unicode="R" horiz-adv-x="1150" d="M0 12l113 473l63 289q78 352 137 664l17 12l291 4q31 1 59 1q185 0 268 -34q186 -78 187 -299q0 -172 -123 -295q-53 -53 -128 -86.5t-124 -44t-139 -22.5l229 -422q6 -12 63.5 -112.5t69.5 -121.5l-10 -14l-137 -6l-17 8q-55 123 -117 238l-217 420l-198 -5 q-68 -285 -140 -645l-14 -14h-121zM307 768l47 -2q123 0 188.5 3t159 22.5t154.5 60.5q145 96 145 266q0 74 -27.5 122t-82.5 70.5t-109.5 30t-136.5 7.5q-20 0 -60 -1t-61 -1l-84 -5l-49 -198z" />
<glyph unicode="S" horiz-adv-x="1067" d="M-14 113l30 123l19 4q39 -57 92 -93q108 -73 258 -73h4q203 0 311 125q72 84 72 204q0 131 -135 228q-4 4 -123 67l-63 33q-104 51 -140 82q-127 106 -127 260q0 137 88 248q133 162 404 162q137 0 252 -43q59 -23 119 -70l6 -16l-43 -111l-17 -2q-25 39 -63 62 q-114 72 -252 72q-1 -1 -2 -1q-139 0 -238 -65q-121 -84 -121 -230q0 -98 74 -164q33 -28 176 -106l66 -33q102 -57 135 -86q133 -117 133 -282q0 -94 -50 -201t-165 -172q-125 -74 -305 -74q-76 0 -141 14q-113 18 -201 82q-43 31 -45 33q-4 6 -8 23z" />
<glyph unicode="T" horiz-adv-x="1024" d="M139 1343l31 101l14 8l355 -6h307l328 6l10 -14l-31 -97l-14 -12l-230 8l-180 2l-94 -407l-105 -471q-51 -231 -92 -447l-16 -14l-123 -2l-10 12l82 350l90 388l135 589h-133l-313 -8z" />
<glyph unicode="U" horiz-adv-x="1366" d="M94 342q0 100 70 387l98 412q45 193 64 295l14 12l131 4l8 -12q-12 -49 -45 -176t-49 -197q-29 -129 -78 -317q-69 -285 -69 -395q0 -81 29.5 -137t78.5 -86t102.5 -42t110.5 -12q203 0 320 127q68 70 107.5 187.5t100.5 389.5l70 310l70 342l16 14l111 4l10 -14 l-86 -367l-76 -321q-78 -322 -110.5 -422.5t-98.5 -180.5q-152 -180 -442 -180q-117 0 -199 27q-137 41 -197.5 139t-60.5 209z" />
<glyph unicode="V" d="M160 1425l12 17l123 10l12 -14l45 -623l56 -704l276 518l199 375q12 23 52 98.5t60 118.5q72 135 113 221l18 10l123 -2l8 -14l-196 -353l-391 -718q-123 -227 -148 -277q-6 -12 -39 -76l-18 -12l-162 -4l-12 12l-33 395l-55 594z" />
<glyph unicode="W" horiz-adv-x="1705" d="M158 1434l14 12l121 4l10 -10v-404l-2 -547v-380l481 1046l127 283l13 10q30 -2 67 -2q55 0 125 4l12 -12v-363v-573v-402l420 934q96 213 176 404l19 10l119 -2l12 -10l-172 -363l-266 -565q-154 -326 -181 -387q-10 -20 -45 -107l-22 -14q-29 1 -57 1q-56 0 -111 -3 l-12 14l-2 385v965q-10 -23 -209 -455l-199 -426q-37 -86 -80 -172q-76 -162 -135 -299l-19 -10l-176 -2l-12 12v373l-10 717z" />
<glyph unicode="X" horiz-adv-x="1067" d="M-162 16l283 328l350 414l-109 297q-8 23 -60 170t-77 207l13 14q16 -2 51 -2q10 0 37.5 2t38.5 2l14 -8q98 -322 188 -574q31 35 104.5 128t104.5 128q186 225 252 316l21 8h139l6 -14q-8 -8 -50 -58.5t-92.5 -109t-56.5 -64.5l-385 -448l76 -220l92 -253l92 -244l9 -21 l-11 -14h-137l-12 10l-90 287l-115 336l-235 -285q-25 -35 -134 -166q-84 -104 -135 -174l-18 -8h-146z" />
<glyph unicode="Y" horiz-adv-x="1024" d="M160 1430l8 14l131 6l12 -10q92 -369 193 -738l272 379l254 359l12 8l134 -2l8 -12q-223 -289 -246 -322l-401 -545l-52 -229l-67 -326l-17 -12l-120 -4l-11 14q78 307 107 439q12 49 26 131l-135 475z" />
<glyph unicode="Z" horiz-adv-x="1024" d="M-147 18q14 23 65 82q72 84 199 250l788 993q-195 -2 -340 -2q-119 0 -354 -12l-12 12l28 95l13 10h884l6 -21l-323 -403l-719 -909h442l326 8l10 -12l-28 -97l-15 -12h-334h-628z" />
<glyph unicode="[" horiz-adv-x="598" d="M-72 -428l119 494l209 907q66 276 123 571l18 19l346 4l13 -13l-27 -86l-18 -12h-207q-84 -332 -172 -717l-86 -374q-10 -47 -31.5 -142.5t-32.5 -142.5q-53 -227 -86 -420h213l13 -12l-19 -76l-16 -14l-346 -4z" />
<glyph unicode="\" horiz-adv-x="894" d="M209 1554l12 15q55 -2 117 0l24 -19q8 -86 27 -186q21 -123 68 -365l121 -657q84 -446 122 -610l-12 -15q-59 2 -117 0l-24 21q-8 74 -31 231q-33 207 -67 383l-101 537q-61 328 -84 434q-35 139 -55 231z" />
<glyph unicode="]" horiz-adv-x="598" d="M-236 -434l27 86l16 12h207q86 330 172 717l88 377q111 492 148 704h-213l-10 13l18 75l14 15q25 0 63 -1t58 -1q115 0 228 6l12 -19l-119 -493l-211 -910q-76 -319 -121 -573l-20 -16l-344 -4z" />
<glyph unicode="^" horiz-adv-x="1492" d="M365 717l368 729h129l359 -729h-158l-268 561l-275 -561h-155z" />
<glyph unicode="_" horiz-adv-x="1024" d="M-23 -154h1070v-102h-1070v102z" />
<glyph unicode="`" horiz-adv-x="598" d="M182 1460l13 21h172l14 -13q16 -168 35 -286l-13 -15l-73 -4l-17 15q-59 139 -131 282z" />
<glyph unicode="a" d="M16 383q0 145 73 305t220 252q82 51 180.5 79t153.5 31t143 3l234 -4l8 -15l-90 -403q-78 -346 -121 -619l-14 -14l-111 -2l-10 14l14 76q-147 -104 -301 -104q-164 0 -271.5 106.5t-107.5 294.5zM145 387q0 -127 70 -212t201 -85q178 0 307 129l160 727q-70 4 -109 4 q-342 0 -506 -213q-55 -70 -89 -168t-34 -182z" />
<glyph unicode="b" d="M-35 10l125 539l76 340q4 23 42 192.5t56 259.5q25 123 43 252l17 15l133 22l8 -12l-59 -236l-93 -401q63 33 94 47t90.5 30.5t118.5 16.5q160 0 268.5 -100.5t108.5 -290.5q0 -76 -17.5 -157t-77.5 -187.5t-155 -181.5q-82 -66 -200.5 -104t-185 -43t-169.5 -9l-151 -2 l-62 -2zM119 113h39q88 0 143 4t142 22.5t161 64.5t133 120q53 63 91 157t38 193q0 131 -72.5 210t-207.5 79q-59 0 -119.5 -18.5t-93.5 -37t-86 -53.5z" />
<glyph unicode="c" horiz-adv-x="894" d="M23 420q0 100 34.5 209.5t102 211t185.5 167t265 65.5q168 0 299 -82l4 -14l-36 -111l-21 -8q-25 33 -39 45q-76 61 -209 62q-117 0 -209 -58.5t-142 -146.5t-75.5 -175t-25.5 -161q0 -57 15 -111.5t49 -107.5t97.5 -86t149.5 -33q149 0 276 109l17 -7l-45 -135l-10 -16 q-111 -61 -259 -62q-209 0 -316 126t-107 319z" />
<glyph unicode="d" d="M18 389q0 250 162 442q190 231 584 232q43 0 149 -8l54 237q35 166 53 299l14 13l133 22l9 -12l-101 -418l-92 -399q-117 -520 -164 -783l-16 -10l-111 -4l-8 12l16 76q-53 -35 -85.5 -53.5t-92 -34.5t-125.5 -16q-174 0 -276.5 109.5t-102.5 295.5zM152 399 q0 -127 67.5 -216t204.5 -89q121 0 223 64q31 18 84 67l160 723q-86 8 -117 8q-289 0 -450 -149q-86 -78 -129 -193.5t-43 -214.5z" />
<glyph unicode="e" horiz-adv-x="1067" d="M20 401q0 115 34 228.5t100.5 215t181.5 165t260 63.5q156 0 264.5 -84t108.5 -274q0 -72 -25 -174l-12 -11q-283 4 -426 5q-100 0 -346 -5q-12 -94 -13 -127q0 -152 89.5 -233.5t246.5 -81.5q74 0 141.5 22.5t104.5 45t92 65.5l17 -8l-43 -135l-11 -15 q-55 -31 -87.5 -45t-97 -28.5t-138.5 -14.5q-213 0 -327 115t-114 311zM188 637h646q12 70 12 102q0 88 -58.5 160t-197.5 72q-184 0 -305 -152q-54 -63 -97 -182z" />
<glyph unicode="f" horiz-adv-x="555" d="M27 8l96 430l110 508l-153 -4l-12 12l22 88l16 13l150 -4l31 151q37 166 51 201q70 192 281 192h2q37 0 110 -12l12 -16l-20 -88l-16 -13q-51 14 -91 15q-70 0 -108 -39q-29 -27 -46.5 -75t-49.5 -185l-27 -131l203 4l12 -17l-27 -75l-14 -17h-194q-119 -518 -195 -932 l-16 -14l-115 -4z" />
<glyph unicode="g" d="M-104 -348l2 16l71 68l15 -2q61 -68 122 -101q98 -49 209 -49q115 0 199 64q49 37 83 95t45 96t30 110l33 133q-143 -102 -314 -102q-160 0 -269.5 102t-109.5 297q0 150 74 303.5t207 245.5q76 53 174 81.5t165.5 35t176.5 8.5h231l7 -15q-70 -279 -158 -690l-60 -270 q-57 -270 -102 -361q-120 -239 -421 -239h-3q-117 0 -208 34.5t-123.5 63.5t-75.5 76zM143 383q0 -86 29 -148.5t76 -92t89 -42t85 -12.5q117 0 231 66q16 8 46 30.5t32 28.5l162 727l-62 2q-111 -2 -171 -6t-149 -29.5t-157 -77.5q-84 -66 -147.5 -189.5t-63.5 -256.5z" />
<glyph unicode="h" d="M-18 12l168 723q111 492 136 613.5t40 242.5l18 15l129 20l12 -16q-86 -338 -159 -658q55 37 91 57.5t109.5 42t153.5 21.5q45 0 87 -9t89 -33.5t77 -79t30 -132.5q0 -68 -39 -254l-58 -264l-57 -289l-14 -12l-123 -4l-8 12l47 185l37 167q8 35 22 97.5t25.5 114 t19.5 96.5q18 70 19 118q0 94 -53.5 135.5t-133.5 41.5q-90 0 -192 -48q-72 -31 -160 -98l-92 -409l-78 -396l-14 -12l-117 -2z" />
<glyph unicode="i" horiz-adv-x="425" d="M-18 10q59 238 124 541l31 145q45 209 64 330l14 14l125 17l12 -13q-68 -258 -119 -505l-53 -252l-51 -275l-14 -12l-121 -2zM279 1397l30 125l19 16l127 16l16 -12l-33 -131l-16 -16l-131 -15z" />
<glyph unicode="j" horiz-adv-x="425" d="M-299 -457l10 78l13 14q113 12 172 91q27 37 42 87t56 234l102 465q55 254 103 512l16 14l125 21l12 -12l-90 -373l-80 -367l-73 -344q-20 -96 -46 -172q-12 -37 -20 -61.5t-34.5 -64.5t-60.5 -65.5t-94.5 -46t-138.5 -22.5zM281 1395l30 129l17 14l131 16l12 -14 l-33 -131l-12 -12l-133 -17z" />
<glyph unicode="k" horiz-adv-x="894" d="M-18 10l124 543l72 303q125 549 152 739l14 13l129 18l12 -12q-29 -94 -57 -232l-174 -745q121 92 459 403l24 11h158l4 -19l-219 -176l-285 -242q12 -18 37 -61t43 -74q41 -70 143 -235q82 -129 138 -226l-8 -14q-78 0 -142 -4l-14 10q-82 158 -342 600 q-61 -254 -125 -596l-14 -12l-121 -4z" />
<glyph unicode="l" horiz-adv-x="425" d="M-12 8l86 391l114 516q82 354 131 680l15 15q68 4 129 20l12 -12l-106 -471l-82 -371q-90 -416 -156 -764l-16 -12l-117 -2z" />
<glyph unicode="m" horiz-adv-x="1748" d="M-16 10q55 221 86 371l39 176q59 274 88 471l14 12l125 19l12 -12l-24 -95q63 41 108 64q117 57 238 57q113 0 184 -61q43 -35 64 -92q43 37 94 65q158 86 311.5 86t226.5 -90q53 -59 54 -168q0 -86 -35 -229l-31 -123l-90 -449l-14 -14l-119 -2l-12 14q55 203 92 371 l39 162l22 116q20 96 21 134q0 165 -191 165h-2q-53 0 -115 -16q-115 -33 -233 -129q-10 -135 -45 -291l-51 -231l-56 -279l-12 -12l-117 -4l-10 16l88 367l29 129q43 225 43 278q0 170 -184 170q-41 0 -93 -10q-102 -27 -233 -127l-68 -303q-61 -276 -102 -504l-14 -12 l-117 -4z" />
<glyph unicode="n" d="M-18 8l81 350l37 164q63 287 97 504l14 14l127 21l8 -12l-29 -101q57 39 93 59.5t110 44t150 23.5q131 0 209.5 -66.5t78.5 -191.5q0 -76 -63 -387l-33 -141l-53 -277l-14 -12l-123 -4l-8 12l90 381l51 244q25 113 24 160q0 84 -50 128t-140 44q-78 0 -150.5 -27 t-104.5 -48.5t-91 -66.5q-86 -383 -168 -811l-16 -12l-117 -6z" />
<glyph unicode="o" d="M18 377q0 80 15.5 165t56.5 182t103.5 173t168 126t236.5 50q203 0 300 -111.5t97 -289.5v-6q0 -97 -32 -209q-14 -49 -27.5 -90t-57.5 -120t-97.5 -132.5t-149.5 -96.5t-211 -43q-195 0 -298.5 104.5t-103.5 297.5zM150 373q0 -133 71.5 -213t204.5 -80q129 0 215 70 q138 110 197 360q24 94 24 166v6q0 150 -81 219.5t-187 69.5q-109 0 -194 -53.5t-130 -126t-74.5 -162.5t-37.5 -151.5t-8 -104.5z" />
<glyph unicode="p" d="M-139 -467l149 617q106 453 185 878l12 12l127 21l10 -14l-18 -80q158 100 292 100q166 0 271.5 -118t105.5 -298q0 -113 -39 -217q-84 -225 -288 -340q-168 -96 -418 -96q-49 0 -144 4q-51 -205 -98 -471l-12 -10h-125zM129 109q98 -8 121 -9q35 0 108 9q154 23 258 88 q51 33 99.5 80t98.5 148t50 218q0 119 -53 193q-81 112 -222 112h-3q-109 0 -209 -61q-39 -25 -84 -72z" />
<glyph unicode="q" d="M18 381q0 203 119 381q43 66 96.5 116t116 79.5t113.5 49t126 27.5t117 11.5t117 5.5h80l148 2l8 -13q-80 -293 -141 -581l-89 -398q-70 -315 -108 -528l-16 -14h-123l-11 12q59 219 131 545q-55 -33 -86.5 -50.5t-90 -31.5t-128.5 -14q-182 0 -280.5 113.5t-98.5 287.5z M150 385q0 -145 81.5 -221t202.5 -76q147 0 301 121l166 733h-31q-125 0 -195.5 -4t-173 -37t-169.5 -98q-94 -88 -138 -207t-44 -211z" />
<glyph unicode="r" horiz-adv-x="641" d="M-23 10l74 299l47 205q23 106 39 174q37 174 62 338l14 12l127 21l10 -12l-37 -146q39 55 64.5 85t81 60.5t119.5 30.5q51 0 90 -22l6 -19l-37 -108l-21 -6q-45 20 -77 20q-117 0 -201 -125q-59 -86 -131 -401l-43 -201l-39 -201l-14 -14l-123 -2z" />
<glyph unicode="s" horiz-adv-x="854" d="M-63 84l32 100l17 4q128 -116 308 -116h3q117 0 192.5 61.5t75.5 155.5q0 37 -13 65.5t-45 51t-54.5 35t-69.5 32.5l-57 23q-49 23 -76 37t-71 47.5t-65.5 81t-21.5 106.5q0 100 58 176q104 135 331 135q106 0 199 -28q41 -12 104 -50l9 -16l-35 -100l-17 -4 q-43 37 -82 55q-94 41 -184 41q-147 0 -217 -86q-39 -47 -39 -107q0 -41 15.5 -71.5t50 -54t57.5 -35t68 -31.5l63 -27q86 -37 119 -65q100 -80 100 -201q0 -119 -78 -207q-109 -127 -329 -127q-186 1 -344 105z" />
<glyph unicode="t" horiz-adv-x="555" d="M49 958l23 84l16 11l160 -2l51 249l14 13l125 28l11 -12l-37 -139l-35 -139l233 4l8 -15l-26 -86l-14 -12l-226 4l-127 -536q-41 -170 -41 -215q0 -96 99 -97q45 0 127 29l10 -8l-29 -96l-14 -17q-74 -18 -125 -18q-94 0 -147.5 42t-53.5 122q0 16 4 53q8 70 105 463 l63 278l-166 -2z" />
<glyph unicode="u" d="M51 264q0 84 53 322l48 202l51 248l14 13l125 6l8 -13q-92 -365 -121 -495q-43 -199 -43 -264q0 -90 54.5 -140.5t142.5 -50.5q76 0 145.5 26.5t103.5 51.5t87 72l69 315q61 281 97 477l16 15l119 6l8 -15l-110 -471l-52 -237q-39 -184 -59 -318l-14 -12l-119 -8l-8 14 l24 96q-171 -122 -335 -122h-3q-133 0 -217 70.5t-84 211.5z" />
<glyph unicode="v" horiz-adv-x="894" d="M72 1032l12 12l117 9l14 -15l23 -323l28 -320l29 -309l321 588q145 264 197 366l16 11h123l11 -15q-193 -326 -203 -344l-156 -270q-20 -41 -65 -119q-18 -33 -48 -86t-51 -88q-41 -78 -63 -117l-17 -10l-165 -6l-17 10l-41 414l-20 225z" />
<glyph unicode="w" horiz-adv-x="1449" d="M70 1032l10 15l113 4l12 -13l8 -397l14 -539l336 672q78 154 127 262l17 11l174 4l10 -15l8 -227l25 -711l293 596q37 76 96 203q39 74 67 145l15 11h112l11 -17q-23 -43 -83.5 -160.5t-123.5 -240.5l-152 -305q-29 -57 -78 -160q-6 -12 -17 -34.5t-15 -29.5 q-8 -16 -23.5 -49.5t-17.5 -38.5l-19 -14l-160 -4l-16 14l-8 228l-29 719l-317 -635q-88 -176 -152 -312l-14 -12l-162 -2l-14 14l-17 369l-14 315z" />
<glyph unicode="x" horiz-adv-x="811" d="M-172 14q141 158 199 226l268 307l-207 487l8 15l129 6l15 -11q63 -197 145 -395l133 166q2 2 28.5 34t45.5 56q23 27 60.5 81t41.5 61l19 6h129l6 -15l-193 -223l-227 -272q207 -485 225 -525l-8 -16l-133 -6l-14 12l-62 178l-96 256l-184 -227q-86 -106 -164 -207 l-19 -8h-135z" />
<glyph unicode="y" horiz-adv-x="894" d="M-90 -477q219 340 315 508l-49 342l-55 350l-55 313l12 15l119 6l16 -8l41 -340l70 -519l227 390q188 330 258 460l16 11h129l9 -17q-49 -80 -140 -223q-31 -51 -110.5 -184t-110.5 -183l-227 -378q-250 -430 -305 -545l-19 -15l-133 2z" />
<glyph unicode="z" horiz-adv-x="854" d="M-135 18q57 63 268 318l223 270q41 49 79 93t57 67q90 109 147 182l-340 -4l-168 -2l-8 14l24 80l17 15q270 -4 301 -4q131 0 393 4l8 -19q-227 -283 -364 -440q-291 -336 -408 -490q377 0 551 11l14 -17l-28 -80l-19 -16q-2 0 -105.5 2t-146.5 2q-66 0 -246 -2t-241 -2z " />
<glyph unicode="{" horiz-adv-x="724" d="M168 532v56q31 12 46 20t36.5 32t36.5 58q23 55 22 244v244q2 78 4 113.5t18.5 88t47.5 89.5q43 49 94 64t162 26v-66q-129 -39 -162 -107.5t-33 -232.5v-160q-2 -188 -9 -251.5t-40 -110.5q-41 -55 -117 -78q78 -27 117 -80q33 -47 40 -110.5t9 -251.5v-160 q0 -164 33 -232.5t162 -107.5v-65q-111 10 -162 25t-94 65q-31 37 -47.5 89t-18.5 88t-4 113v244q0 186 -22 244q-14 35 -36 58.5t-37 31.5t-46 20z" />
<glyph unicode="|" horiz-adv-x="468" d="M168 -512v2048h123v-2048h-123z" />
<glyph unicode="}" horiz-adv-x="724" d="M80 -381q129 39 161.5 107.5t32.5 232.5v160q2 188 9.5 251.5t40.5 110.5q41 55 116 78q-78 27 -116 80q-33 47 -40.5 110.5t-9.5 251.5v160q0 164 -32.5 232.5t-161.5 107.5v66q111 -10 162 -25.5t94 -64.5q31 -37 47 -89.5t18 -88t5 -113.5v-244q0 -188 22 -244 q14 -35 35.5 -58.5t37 -31.5t46.5 -20v-56q-31 -12 -46.5 -20t-37 -31.5t-35.5 -58.5q-23 -57 -22 -244v-244q-2 -78 -4.5 -113.5t-18.5 -87.5t-47 -89q-43 -49 -94.5 -64.5t-161.5 -25.5v65z" />
<glyph unicode="~" horiz-adv-x="1492" d="M258 580q104 164 252 163q80 0 231 -71l66 -31q96 -41 133 -41q43 0 83 22.5t59.5 43t56.5 63.5l63 -113q-125 -158 -262 -157q-63 0 -199 63l-57 29q-113 51 -172 51q-55 0 -88 -25.5t-98 -107.5z" />
<glyph unicode="&#xa1;" horiz-adv-x="512" d="M-80 10l107 383l61 244q47 178 86 356l31 154l14 14l88 2l10 -12l-51 -238l-61 -297q-76 -362 -117 -604l-14 -14l-144 -4zM219 1366l37 162l18 14l160 6l12 -14q-25 -86 -36 -162l-19 -16l-160 -6z" />
<glyph unicode="&#xa2;" horiz-adv-x="980" d="M23 387q0 158 67.5 314.5t210.5 271t330 114.5q51 0 82 -6q16 33 65 148l15 8q49 0 94 2l6 -10q-35 -72 -84 -166q76 -31 135 -80l2 -16q-23 -59 -41 -111l-18 -2q-35 67 -123 104l-404 -860q53 -16 99 -16q152 0 307 119l14 -6q-23 -63 -45 -138l-10 -12 q-117 -72 -279 -72q-57 0 -133 15q-25 -51 -75 -168l-17 -15h-96l-8 11q57 106 104 209q-199 111 -198 362zM152 383q-1 -178 118 -248l398 844q-33 4 -50 4q-199 0 -332.5 -190.5t-133.5 -409.5z" />
<glyph unicode="&#xa3;" d="M-12 14q117 162 173 290t87 355l-162 -4l-6 13l24 82l15 8h139q33 279 53 342q51 150 178 234.5t308 84.5q78 0 143 -14q94 -18 176 -82l4 -16l-33 -99l-16 -4q-41 35 -65.5 52.5t-83 37t-129.5 19.5q-193 0 -301 -137q-49 -66 -71 -158t-38 -256q246 -2 520 6l10 -10 l-30 -92l-17 -11q-190 6 -493 4q-45 -248 -76 -337t-119 -216h156q84 0 280.5 6.5t253.5 6.5l6 -13l-24 -96l-14 -12l-295 2h-545z" />
<glyph unicode="&#xa4;" horiz-adv-x="1366" d="M121 223l153 150q-113 147 -112 321q0 176 110 322l-147 149l92 92l148 -149q154 113 323.5 113t321.5 -111l149 150l94 -95l-151 -149q31 -43 48 -70.5t39.5 -98.5t22.5 -151q0 -176 -112 -323l151 -152l-94 -94l-149 154q-152 -111 -320 -111q-176 0 -321 111 l-154 -150zM285 696q0 -172 117.5 -288.5t287.5 -116.5q168 0 281.5 114.5t115.5 290.5q2 174 -115.5 289t-283.5 115q-170 0 -286.5 -115t-116.5 -289z" />
<glyph unicode="&#xa5;" horiz-adv-x="980" d="M43 387q23 59 31 78l16 14q78 -4 279 -4q16 66 16 80l-27 92h-137q-70 0 -110 -2l-11 19q18 45 31 77l16 15q74 -4 183 -4l-74 258l-55 196q-23 78 -49 164l6 14q37 0 127 5l10 -9q49 -199 174 -665l12 -39l262 362l123 174q100 141 119 168l12 9q63 -2 127 -3l9 -12 q-123 -156 -236 -309l-233 -313h108q25 0 90 4l10 -15q-4 -8 -14 -37.5t-16 -48.5l-15 -10q-2 0 -88 1t-151 1l-76 -102l-16 -70h192q41 0 115 4l10 -12q-17 -45 -29 -86l-16 -12q-74 4 -121 4h-174l-12 -49q-55 -264 -64 -312l-14 -12q-63 0 -117 -2l-8 12q49 203 86 363 h-176q-31 0 -65.5 -1t-49.5 -1z" />
<glyph unicode="&#xa6;" horiz-adv-x="468" d="M168 389h123v-780h-123v780zM168 631v780h123v-780h-123z" />
<glyph unicode="&#xa7;" horiz-adv-x="1024" d="M-90 -176l37 121l16 2q37 -49 82 -78q100 -66 231 -66q158 0 233 71t75 163q0 74 -45 122t-170 138l-60 41q-51 35 -78.5 56.5t-71.5 65.5t-65.5 96t-21.5 114q0 84 47 157q33 51 82 86t89 50.5t120 42.5q-102 106 -103 219q0 49 20.5 101t62.5 103.5t125 84t194 32.5 q74 0 137 -17.5t93 -32.5t77 -46l6 -16l-39 -107l-12 -2q-29 41 -62 59q-90 59 -213 60q-113 0 -185.5 -62.5t-72.5 -152.5q0 -70 42 -117t169 -139l56 -41q70 -53 103.5 -84t68 -91.5t34.5 -127.5q0 -236 -319 -342q39 -41 57.5 -65.5t41 -78t22.5 -112.5 q0 -135 -114 -237.5t-320 -102.5q-156 0 -279 61q-41 18 -84 55zM201 672q0 -47 29.5 -93.5t57 -70t72.5 -55.5l60 -41l76 -50q160 37 224 114t64 140q0 49 -28.5 96.5t-52 68t-66.5 53.5l-51 36q-45 31 -80 60q-113 -23 -172 -60q-133 -78 -133 -198z" />
<glyph unicode="&#xa8;" horiz-adv-x="598" d="M8 1219l35 145l14 12l148 6l8 -10l-35 -149l-16 -11l-146 -6zM389 1217l35 145l14 14l142 6l10 -12l-33 -145l-16 -13l-138 -4z" />
<glyph unicode="&#xa9;" horiz-adv-x="1705" d="M119 723q0 309 214 519t513 210q313 0 523 -215t208 -518q-2 -305 -212 -515t-519 -210q-293 0 -510 207t-217 522zM184 723q0 -279 194.5 -471.5t469.5 -192.5q279 0 470 193t193 467q2 276 -188 471.5t-473 195.5q-279 0 -472.5 -194.5t-193.5 -468.5zM389 723 q0 205 136.5 341t336.5 136q223 0 381 -188l-86 -80q-133 154 -295 153q-145 0 -249.5 -102t-104.5 -258q0 -154 105.5 -256t250.5 -102q168 -1 293 151l86 -74q-147 -193 -383 -192q-197 0 -334 133t-137 338z" />
<glyph unicode="&#xaa;" horiz-adv-x="724" d="M131 1012q0 84 40 182t126 166q119 90 336 90l153 -2l11 -16l-60 -263q-2 -6 -21.5 -99t-31.5 -157q-18 -104 -25 -143l-14 -12q-55 0 -76 -2l-12 16l4 31q-100 -55 -178 -55q-115 0 -183.5 72.5t-68.5 191.5zM231 1016q0 -80 42 -131t124 -51q63 0 119.5 30.5t67.5 48.5 q2 2 22.5 98.5t46 213t31.5 141.5h-4q-66 2 -102.5 0t-94 -17.5t-104.5 -45.5q-66 -45 -101.5 -119t-41 -109t-5.5 -59z" />
<glyph unicode="&#xab;" horiz-adv-x="724" d="M12 547l4 20q195 268 263 375l24 10h127l6 -16q-180 -229 -293 -381l125 -383l-8 -16l-113 -2l-12 12q-37 123 -57 184q-20 66 -66 197zM313 553l4 18q12 18 25.5 36l22.5 30q57 78 219 305l20 10h127l6 -14q-18 -23 -55 -71t-55 -72q-45 -55 -183 -242q57 -186 127 -381 l-12 -16l-110 -2l-15 12q-8 33 -41 139q-8 27 -80 248z" />
<glyph unicode="&#xac;" horiz-adv-x="1366" d="M-47 537v120h1366v-657h-123v537h-1243z" />
<glyph unicode="&#xad;" horiz-adv-x="598" d="M-10 532l33 95l20 16l170 -4h113l198 4l11 -12l-35 -105l-19 -10l-194 2h-105l-182 -2z" />
<glyph unicode="&#xae;" horiz-adv-x="1705" d="M117 723q0 311 215 520t514 209q313 0 523 -215t208 -518t-213 -514t-520 -211q-293 0 -510 207t-217 522zM182 723q0 -279 194.5 -471.5t469.5 -192.5q281 0 472 191.5t193 470.5q2 276 -188 470.5t-473 194.5q-281 0 -474.5 -194.5t-193.5 -468.5zM553 270v912h281 q158 0 213 -21q68 -27 103.5 -83t35.5 -124q0 -90 -57.5 -147t-147.5 -72q72 -27 102.5 -70.5t44.5 -129.5q12 -86 17.5 -115t18 -70t32.5 -80h-154q-20 43 -36 125q-2 10 -11.5 72.5t-11.5 73.5q-18 94 -69.5 122.5t-161.5 30.5h-66v-424h-133zM688 801h154q209 0 209 143 q0 63 -43 100q-27 25 -64 30t-131 5h-125v-278z" />
<glyph unicode="&#xaf;" horiz-adv-x="598" d="M27 1249q20 41 32 86l19 17q14 0 170 -6h112q117 0 201 6l10 -15q-33 -88 -34 -94l-19 -12q-82 4 -194 4h-105q-104 0 -182 -2z" />
<glyph unicode="&#xb0;" horiz-adv-x="724" d="M137 1231q0 125 88 213t213 88t213 -88t88 -213t-88 -213t-213 -88t-213 88t-88 213zM260 1231q0 -74 52.5 -126t126 -52t125.5 52t52 126t-52 126t-125.5 52t-126 -52t-52.5 -126z" />
<glyph unicode="&#xb1;" horiz-adv-x="1366" d="M76 0v121h1200v-121h-1200zM76 776v121h542v524h121v-524h537v-121h-537v-524h-121v524h-542z" />
<glyph unicode="&#xb2;" horiz-adv-x="811" d="M6 510q10 10 68.5 55t62.5 47l152 123q248 197 317 283q57 76 58 137q0 57 -47.5 108.5t-141.5 51.5q-57 0 -109.5 -20.5t-77 -39t-65.5 -55.5l-22 8q20 74 30 113l11 12q111 72 241.5 72t206.5 -71.5t76 -168.5q0 -123 -133 -256q-70 -70 -408 -340q154 0 230 2 q33 0 109.5 3.5t99.5 3.5l10 -15q-4 -12 -11.5 -35.5t-11.5 -35.5l-16 -11q-16 2 -238 2h-161q-184 0 -222 -2z" />
<glyph unicode="&#xb3;" horiz-adv-x="811" d="M45 567q8 25 23 74l18 4q90 -96 221 -96q127 0 205 74.5t78 167.5q0 76 -50.5 118.5t-127.5 42.5q-55 0 -125 -26l-17 22q12 14 93 96t96 97q80 80 159 166q-104 -2 -235 -2q-66 0 -143 -5l-13 17q10 29 21 59l14 13q63 -2 127 -3h281q61 0 127 3l6 -25l-12 -12 q-33 -31 -314 -322q72 -14 94 -24q117 -55 117 -209q0 -143 -107.5 -238.5t-271.5 -95.5q-160 0 -258 88z" />
<glyph unicode="&#xb4;" horiz-adv-x="598" d="M104 1180q33 45 185 293l18 12q66 -4 101 -4q14 0 40.5 1t38.5 1l7 -15q-2 -2 -50.5 -52t-99.5 -106.5t-88 -99.5q-4 -6 -16.5 -19t-16.5 -20l-20 -10l-92 4z" />
<glyph unicode="&#xb6;" horiz-adv-x="1366" d="M240 1049q0 186 125 294q51 45 118.5 70t105.5 28t101 5h455v-90h-70v-1698h-94v1698h-322v-1698h-94v1018q-121 18 -188 72q-137 104 -137 301z" />
<glyph unicode="&#xb7;" horiz-adv-x="425" d="M61 489q25 82 39 164l17 15l157 8l15 -17q-18 -70 -35 -161l-21 -17l-159 -4z" />
<glyph unicode="&#xb8;" horiz-adv-x="598" d="M141 -360q133 176 189 254l20 12l96 -2l11 -15q-8 -18 -67.5 -125.5t-70.5 -128.5l-20 -16h-149z" />
<glyph unicode="&#xb9;" horiz-adv-x="811" d="M322 498q14 53 75 319l37 164q57 256 72 324q-31 -4 -127 -23l-14 14q8 39 16 64l14 14q98 12 117 15q63 8 109 16l14 -16q-31 -113 -43 -166q-25 -103 -37 -156l-45 -211q-27 -113 -76 -360l-14 -13q-45 0 -86 -2z" />
<glyph unicode="&#xba;" horiz-adv-x="724" d="M131 1004q0 51 10.5 107t37 119.5t67.5 113t109.5 82t154.5 32.5q127 0 194.5 -70.5t67.5 -191.5q0 -27 -5 -69t-27.5 -112.5t-59.5 -128t-111 -101.5t-170 -46q-72 -2 -124 19.5t-78.5 51.5t-43 72t-19.5 68.5t-3 53.5zM231 999q0 -76 42 -126t128 -50q82 0 140.5 50.5 t83 124t35 125t10.5 79.5q0 86 -47.5 130t-118.5 44q-78 0 -136.5 -45t-85 -112.5t-39 -123t-12.5 -96.5z" />
<glyph unicode="&#xbb;" horiz-adv-x="724" d="M-92 168q20 29 57 76q37 45 121 158.5t115 150.5q-49 160 -127 381l12 18h111l14 -12q6 -25 35 -125q43 -137 86 -262l-4 -18q-168 -229 -267 -371l-22 -10h-127zM207 168q63 80 108 139.5t95.5 125t91.5 118.5l-127 383l8 16l115 2l12 -12q43 -143 57 -186 q35 -109 64 -195l-4 -20q-209 -295 -262 -375l-25 -10h-127z" />
<glyph unicode="&#xbc;" horiz-adv-x="1878" d="M315 496q14 55 76 321l37 162l33 147q33 147 39 179q-31 -4 -127 -23l-15 14q2 12 8.5 33t8.5 31l14 14q98 12 117 15q70 8 108 16l15 -16q-31 -113 -43 -166q-23 -93 -35 -156l-47 -211q-8 -43 -38 -183.5t-38 -176.5l-14 -13q-45 0 -86 -2zM418 12q8 14 62.5 93 t62.5 92q41 59 119 182l358 557q160 244 276 438l25 15q53 0 90 4l10 -15q-71 -104 -286 -430l-318 -495q-102 -156 -151 -236l-125 -203l-21 -14q-57 0 -94 -2zM1028 274l16 54l11 16q41 43 257 279.5t249 271.5l16 10q72 0 123 2l14 -14q-51 -219 -67 -293 q-41 -186 -60 -256h121l12 -16l-18 -56l-16 -14q-57 2 -117 0q-33 -143 -51 -244l-17 -16q-37 0 -78 -2l-14 14q33 123 59 248h-200q-27 0 -98.5 -1t-100.5 -1h-31zM1171 344h318l80 334l35 143q-27 -29 -55.5 -60.5t-53.5 -60.5z" />
<glyph unicode="&#xbd;" horiz-adv-x="1878" d="M315 496q16 53 78 321l35 164q70 309 74 324q-43 -6 -127 -23l-17 14q10 35 17 64l16 14l115 15q70 8 108 16l15 -16q-2 -4 -20.5 -77t-22.5 -89q-6 -29 -17.5 -81t-17.5 -75l-47 -211q-6 -31 -23.5 -111.5t-32 -149.5t-20.5 -99l-12 -13q-47 0 -88 -2zM358 12 q8 14 62.5 93t62.5 92q41 59 119 182l359 557q160 244 276 438l25 15q53 0 90 4l10 -15q-117 -166 -287 -430l-317 -493q-133 -209 -152 -238l-125 -203l-20 -14q-57 0 -94 -2zM965 27q8 8 35.5 29.5t58.5 46t37 28.5l151 123q252 201 318 283q57 76 57 137q0 57 -47 108.5 t-141 51.5q-57 0 -109.5 -20.5t-77 -39t-65.5 -55.5l-23 8q20 74 31 113l10 12q111 72 242 72t206.5 -72t75.5 -168q0 -123 -133 -256q-47 -47 -96 -89t-311 -253q154 0 229 2q123 6 209 6l10 -14q-4 -12 -11 -36t-11 -36l-17 -8q-86 0 -237 2h-162q-166 -2 -221 -2z" />
<glyph unicode="&#xbe;" horiz-adv-x="1878" d="M39 567q8 25 22 74l19 4q90 -96 221 -96q127 0 205 74.5t78 167.5q0 76 -50.5 118.5t-127.5 42.5q-55 0 -125 -26l-17 22q12 14 93 96t96 97q80 80 159 166q-104 -2 -235 -2q-66 0 -144 -5l-12 17q10 29 21 59l14 13q63 -2 127 -3h281q61 0 127 3l6 -25l-13 -12 q-33 -31 -313 -322q72 -14 94 -24q117 -55 117 -209q0 -143 -107.5 -238.5t-271.5 -95.5q-160 0 -258 88zM453 14q10 14 64 93t63 90q39 59 116 182l359 557q160 244 276 438l25 15q53 0 90 4l10 -15q-72 -104 -287 -430l-317 -495q-23 -35 -152 -236l-125 -203l-20 -14 q-55 0 -94 -2zM1026 274l18 54l11 16q96 102 504 551l18 10q70 0 121 2l14 -14q-25 -104 -65 -293q-41 -186 -60 -256h119l12 -16l-18 -56l-17 -14q-55 2 -116 0q-37 -168 -51 -244l-17 -16q-37 0 -76 -2l-16 14q33 127 61 248h-202q-29 0 -99.5 -1t-97.5 -1h-33zM1169 344 h320l78 334l37 143q-27 -29 -55.5 -60.5t-53.5 -60.5z" />
<glyph unicode="&#xbf;" horiz-adv-x="768" d="M-53 274q0 82 35.5 164t72.5 130t111 132l65 70q154 166 189 291q12 49 18 76l21 18l92 4l14 -14q-33 -139 -74.5 -219t-148.5 -201l-37 -37q-70 -84 -103.5 -126t-75.5 -126t-42 -155q0 -14 2 -29.5t14.5 -48.5t35 -57.5t69.5 -44t112 -19.5q72 0 130.5 16.5t88 34 t80.5 53.5l17 -8l-33 -112l-16 -23q-125 -76 -285 -76q-162 0 -257 84t-95 223zM451 1362q20 82 36 166l19 14l158 4l14 -14q-23 -82 -35 -160l-20 -16l-162 -6z" />
<glyph unicode="&#xc0;" horiz-adv-x="1150" d="M-164 18l275 486l245 444l273 492l16 10l176 4l10 -8q41 -485 156 -1434l-12 -12l-121 -4l-14 14l-23 275l-18 196h-566l-86 -164q-135 -258 -157 -303l-15 -10l-133 -2zM293 594q164 -4 250 -4q82 0 245 4l-47 471l-28 305zM569 1802l9 19h184l14 -15l66 -254l-11 -16 h-92l-14 8q-74 125 -156 258z" />
<glyph unicode="&#xc1;" horiz-adv-x="1150" d="M-164 18l275 486l245 444l273 492l16 10l176 4l10 -8q41 -485 156 -1434l-12 -12l-121 -4l-14 14l-23 275l-18 196h-566l-86 -164q-135 -258 -157 -303l-15 -10l-133 -2zM293 594q164 -4 250 -4q82 0 245 4l-47 471l-28 305zM678 1550q145 221 166 258l20 11l195 4l8 -19 q-49 -49 -94 -92t-70 -67l-98 -101l-23 -10l-98 2z" />
<glyph unicode="&#xc2;" horiz-adv-x="1150" d="M-164 18l275 486l245 444l273 492l16 10l176 4l10 -8q41 -485 156 -1434l-12 -12l-121 -4l-14 14l-23 275l-18 196h-566l-86 -164q-135 -258 -157 -303l-15 -10l-133 -2zM293 594q164 -4 250 -4q82 0 245 4l-47 471l-28 305zM477 1552q39 49 117 136q57 66 102 124l23 11 q20 0 55 -1t51 -1q72 0 107 2l16 -13l99 -258l-13 -14l-123 -6l-14 12l-86 207q-135 -139 -195 -209l-22 -8l-109 2z" />
<glyph unicode="&#xc3;" horiz-adv-x="1150" d="M-164 18l275 486l245 444l273 492l16 10l176 4l10 -8q41 -485 156 -1434l-12 -12l-121 -4l-14 14l-23 275l-18 196h-566l-86 -164q-135 -258 -157 -303l-15 -10l-133 -2zM293 594q164 -4 250 -4q82 0 245 4l-47 471l-28 305zM453 1589l28 113l15 22q90 66 172 66 q59 0 145 -49l25 -15q59 -37 100 -36q74 0 168 90l14 -8l-28 -109l-13 -18q-86 -72 -174 -72q-63 0 -157 51l-21 14q-55 33 -92 33q-29 0 -62.5 -16.5t-49 -27.5t-56.5 -44z" />
<glyph unicode="&#xc4;" horiz-adv-x="1150" d="M-164 18l275 486l245 444l273 492l16 10l176 4l10 -8q41 -485 156 -1434l-12 -12l-121 -4l-14 14l-23 275l-18 196h-566l-86 -164q-135 -258 -157 -303l-15 -10l-133 -2zM293 594q164 -4 250 -4q82 0 245 4l-47 471l-28 305zM440 1581l35 145l17 19l149 4l14 -12 l-32 -150l-17 -14l-155 -6zM881 1581q18 63 32 150l17 14l151 6l15 -10q-20 -76 -33 -154l-19 -12l-155 -8z" />
<glyph unicode="&#xc5;" horiz-adv-x="1150" d="M-164 18l275 486l245 444l273 492l16 10l176 4l10 -8q41 -485 156 -1434l-12 -12l-121 -4l-14 14l-23 275l-18 196h-566l-86 -164q-135 -258 -157 -303l-15 -10l-133 -2zM293 594q164 -4 250 -4q82 0 245 4l-47 471l-28 305zM565 1692q0 104 71 170.5t175 66.5 q82 0 136 -45t54 -129q0 -96 -62 -166.5t-181 -70.5q-80 0 -136.5 42t-56.5 132zM676 1683q0 -41 21.5 -67.5t62.5 -26.5q86 1 119 107q12 45 12 67q0 41 -21.5 65.5t-60.5 24.5q-41 0 -70.5 -23.5t-42 -57t-16.5 -55t-4 -34.5z" />
<glyph unicode="&#xc6;" horiz-adv-x="1662" d="M-168 14q106 158 141 219q10 14 42 64.5t67 108t43 69.5l399 649q139 219 191 314l18 8h975l12 -8l-30 -92l-13 -13q-14 0 -199.5 4t-260.5 4q-31 0 -92.5 -1t-92.5 -1l-119 -528h162l473 8l11 -12l-33 -96l-19 -13q-305 4 -618 2l-62 -280l-65 -309h141l535 12l10 -12 l-29 -103l-12 -8h-520l-281 -4l-10 10l57 240l49 217q-170 2 -446 -4l-111 -183q-37 -61 -151 -266l-19 -10h-135zM324 571h401l172 772h-102z" />
<glyph unicode="&#xc7;" horiz-adv-x="1236" d="M76 567q0 117 28.5 238t93 242.5t158 216t235.5 154t312 59.5q233 0 404 -119l4 -15q-4 -14 -39 -108l-17 -4q-137 131 -356 131q-133 0 -247.5 -50t-193.5 -132t-136.5 -185.5t-84 -210t-26.5 -206.5q0 -223 129 -357.5t344 -134.5q217 0 397 150l15 -9 q-4 -12 -13.5 -38.5t-13.5 -41.5q-4 -12 -11 -37.5t-11 -37.5l-13 -17q-160 -86 -364 -86q-281 0 -437.5 165t-156.5 433zM393 -360q6 10 47 62t47 62q51 70 93 130l22 12q18 0 52 -1t44 -1l11 -15q-123 -221 -140 -254l-18 -16q-49 4 -74 4q-35 0 -76 -4z" />
<glyph unicode="&#xc8;" horiz-adv-x="1067" d="M0 8l98 414l72 315l145 701l17 8h250l243 2l291 4l12 -12l-28 -94l-19 -13l-645 8l-119 -530h345l288 4l8 -14l-26 -88l-19 -13l-258 5l-360 -5l-49 -223l-80 -364h283l393 8l10 -15l-29 -96l-14 -10h-137h-252l-410 -6zM526 1802l9 19h184l14 -15l66 -254l-11 -16h-92 l-14 8q-74 125 -156 258z" />
<glyph unicode="&#xc9;" horiz-adv-x="1067" d="M0 8l98 414l72 315l145 701l17 8h250l243 2l291 4l12 -12l-28 -94l-19 -13l-645 8l-119 -530h345l288 4l8 -14l-26 -88l-19 -13l-258 5l-360 -5l-49 -223l-80 -364h283l393 8l10 -15l-29 -96l-14 -10h-137h-252l-410 -6zM635 1550q145 221 166 258l20 11l195 4l8 -19 q-49 -49 -94 -92t-70 -67l-98 -101l-23 -10l-98 2z" />
<glyph unicode="&#xca;" horiz-adv-x="1067" d="M0 8l98 414l72 315l145 701l17 8h250l243 2l291 4l12 -12l-28 -94l-19 -13l-645 8l-119 -530h345l288 4l8 -14l-26 -88l-19 -13l-258 5l-360 -5l-49 -223l-80 -364h283l393 8l10 -15l-29 -96l-14 -10h-137h-252l-410 -6zM434 1552q39 49 117 136q57 66 102 124l23 11 q20 0 55 -1t51 -1q72 0 107 2l16 -13l99 -258l-13 -14l-123 -6l-14 12l-86 207q-135 -139 -195 -209l-22 -8l-109 2z" />
<glyph unicode="&#xcb;" horiz-adv-x="1067" d="M0 8l98 414l72 315l145 701l17 8h250l243 2l291 4l12 -12l-28 -94l-19 -13l-645 8l-119 -530h345l288 4l8 -14l-26 -88l-19 -13l-258 5l-360 -5l-49 -223l-80 -364h283l393 8l10 -15l-29 -96l-14 -10h-137h-252l-410 -6zM416 1581l35 145l16 19l149 4l15 -12l-33 -150 l-16 -14l-156 -6zM856 1581q18 63 33 150l16 14l152 6l14 -10q-20 -76 -33 -154l-18 -12l-156 -8z" />
<glyph unicode="&#xcc;" horiz-adv-x="468" d="M0 10l66 269l96 428q80 360 153 729l15 12l129 2l8 -10l-180 -783l-39 -178l-94 -467l-17 -10l-127 -4zM229 1802l9 19h184l14 -15l66 -254l-10 -16h-93l-14 8q-74 125 -156 258z" />
<glyph unicode="&#xcd;" horiz-adv-x="468" d="M0 10l66 269l96 428q80 360 153 729l15 12l129 2l8 -10l-180 -783l-39 -178l-94 -467l-17 -10l-127 -4zM338 1550q145 221 166 258l20 11l195 4l8 -19q-49 -49 -94 -92t-70 -67l-98 -101l-23 -10l-98 2z" />
<glyph unicode="&#xce;" horiz-adv-x="468" d="M0 10l66 269l96 428q80 360 153 729l15 12l129 2l8 -10l-180 -783l-39 -178l-94 -467l-17 -10l-127 -4zM137 1552q39 49 117 136q57 66 102 124l23 11q20 0 55 -1t51 -1q72 0 107 2l16 -13l99 -258l-13 -14l-123 -6l-14 12l-86 207q-135 -139 -195 -209l-22 -8l-109 2z " />
<glyph unicode="&#xcf;" horiz-adv-x="468" d="M0 10l66 269l96 428q80 360 153 729l15 12l129 2l8 -10l-180 -783l-39 -178l-94 -467l-17 -10l-127 -4zM119 1581l35 145l16 19l149 4l15 -12l-33 -150l-16 -14l-156 -6zM559 1581q18 63 33 150l16 14l152 6l14 -10q-20 -76 -33 -154l-18 -12l-156 -8z" />
<glyph unicode="&#xd0;" horiz-adv-x="1409" d="M0 737q10 27 23 84l16 13q53 0 111 -3h38l5 19q82 369 122 588l17 10q82 0 123 2h120q182 4 296 -6t204 -53q258 -123 258 -478q0 -170 -67.5 -354t-190.5 -315q-80 -86 -171 -138.5t-206.5 -74t-194.5 -27.5t-222 -6h-115q-80 2 -156 2l-8 10q8 51 35 148q10 39 33 149 l96 418h-37h-119zM166 109q317 0 458.5 23.5t274.5 127.5q141 113 219 297t78 367q0 322 -276 397q-88 27 -353 22l-127 -2l-116 -510h30h287q72 0 152 3l8 -13q-16 -55 -25 -90l-16 -12q-201 6 -426 6l-35 -2l-6 -21q-82 -362 -127 -593z" />
<glyph unicode="&#xd1;" horiz-adv-x="1409" d="M2 10l137 582l54 250l124 594l15 12l180 4l18 -10l109 -326l205 -596l139 -416l188 877l95 457l14 10l113 2l10 -12l-111 -473l-100 -455l-102 -496l-17 -12l-174 -4l-16 12l-92 277l-365 1071l-199 -922l-88 -424l-14 -12l-113 -2zM582 1589l28 113l15 22q90 66 172 66 q59 0 145 -49l25 -15q59 -37 100 -36q74 0 168 90l14 -8l-28 -109l-13 -18q-86 -72 -174 -72q-63 0 -157 51l-21 14q-55 33 -92 33q-29 0 -62.5 -16.5t-49 -27.5t-56.5 -44z" />
<glyph unicode="&#xd2;" horiz-adv-x="1492" d="M70 532q0 111 25.5 233t86 250t147.5 229.5t222 167t299 65.5q250 0 407.5 -146.5t157.5 -419.5q0 -141 -41 -286q-70 -256 -209 -416q-211 -240 -530 -240q-240 0 -402.5 143.5t-162.5 419.5zM213 535q0 -211 104 -328q115 -129 320 -129q242 0 400.5 181.5t217.5 455.5 q23 102 23 194q0 217 -118 338t-314 121q-158 0 -286 -87t-199.5 -219t-109.5 -269.5t-38 -257.5zM741 1802l9 19h184l14 -15l66 -254l-10 -16h-93l-14 8q-74 125 -156 258z" />
<glyph unicode="&#xd3;" horiz-adv-x="1492" d="M70 532q0 111 25.5 233t86 250t147.5 229.5t222 167t299 65.5q250 0 407.5 -146.5t157.5 -419.5q0 -141 -41 -286q-70 -256 -209 -416q-211 -240 -530 -240q-240 0 -402.5 143.5t-162.5 419.5zM213 535q0 -211 104 -328q115 -129 320 -129q242 0 400.5 181.5t217.5 455.5 q23 102 23 194q0 217 -118 338t-314 121q-158 0 -286 -87t-199.5 -219t-109.5 -269.5t-38 -257.5zM850 1550q145 221 166 258l20 11l195 4l8 -19q-49 -49 -94 -92t-70 -67l-98 -101l-23 -10l-98 2z" />
<glyph unicode="&#xd4;" horiz-adv-x="1492" d="M70 532q0 111 25.5 233t86 250t147.5 229.5t222 167t299 65.5q250 0 407.5 -146.5t157.5 -419.5q0 -141 -41 -286q-70 -256 -209 -416q-211 -240 -530 -240q-240 0 -402.5 143.5t-162.5 419.5zM213 535q0 -211 104 -328q115 -129 320 -129q242 0 400.5 181.5t217.5 455.5 q23 102 23 194q0 217 -118 338t-314 121q-158 0 -286 -87t-199.5 -219t-109.5 -269.5t-38 -257.5zM649 1552q39 49 117 136q57 66 102 124l23 11q20 0 55 -1t51 -1q72 0 107 2l16 -13l99 -258l-13 -14l-123 -6l-14 12l-86 207q-135 -139 -195 -209l-22 -8l-109 2z" />
<glyph unicode="&#xd5;" horiz-adv-x="1492" d="M70 532q0 111 25.5 233t86 250t147.5 229.5t222 167t299 65.5q250 0 407.5 -146.5t157.5 -419.5q0 -141 -41 -286q-70 -256 -209 -416q-211 -240 -530 -240q-240 0 -402.5 143.5t-162.5 419.5zM213 535q0 -211 104 -328q115 -129 320 -129q242 0 400.5 181.5t217.5 455.5 q23 102 23 194q0 217 -118 338t-314 121q-158 0 -286 -87t-199.5 -219t-109.5 -269.5t-38 -257.5zM625 1589l28 113l15 22q90 66 172 66q59 0 145 -49l25 -15q59 -37 100 -36q74 0 168 90l14 -8l-28 -109l-13 -18q-86 -72 -174 -72q-63 0 -157 51l-21 14q-55 33 -92 33 q-29 0 -62.5 -16.5t-49 -27.5t-56.5 -44z" />
<glyph unicode="&#xd6;" horiz-adv-x="1492" d="M70 532q0 111 25.5 233t86 250t147.5 229.5t222 167t299 65.5q250 0 407.5 -146.5t157.5 -419.5q0 -141 -41 -286q-70 -256 -209 -416q-211 -240 -530 -240q-240 0 -402.5 143.5t-162.5 419.5zM213 535q0 -211 104 -328q115 -129 320 -129q242 0 400.5 181.5t217.5 455.5 q23 102 23 194q0 217 -118 338t-314 121q-158 0 -286 -87t-199.5 -219t-109.5 -269.5t-38 -257.5zM621 1581l34 145l17 19l149 4l15 -12l-33 -150l-17 -14l-155 -6zM1061 1581q18 63 33 150l16 14l152 6l14 -10q-20 -76 -33 -154l-18 -12l-156 -8z" />
<glyph unicode="&#xd7;" horiz-adv-x="1366" d="M166 170l424 426l-424 422l86 86l424 -424l426 424l86 -86l-426 -422l426 -426l-86 -84l-426 424l-424 -424z" />
<glyph unicode="&#xd8;" horiz-adv-x="1492" d="M-102 94l2 23q88 59 186 137l29 22q-47 125 -47 259q0 100 22.5 215.5t80.5 246.5t143 235.5t226.5 174.5t313.5 70q221 0 377 -125q49 -41 90 -99l33 25l164 139l18 -2l57 -67l-4 -19q-85 -63 -194 -147l-25 -21q43 -117 43 -246q0 -100 -21.5 -215.5t-80 -248 t-143.5 -237.5t-226 -175t-315 -70q-303 0 -463 219l-27 -22l-166 -141h-22zM205 545q0 -63 20 -180l996 806q-119 203 -373 203q-135 0 -248 -61.5t-183.5 -155.5t-120.5 -208.5t-70.5 -217t-20.5 -186.5zM264 270q37 -66 80 -102q119 -96 291 -96q207 0 358.5 137t220 340 t68.5 366q1 78 -22 158z" />
<glyph unicode="&#xd9;" horiz-adv-x="1366" d="M94 342q0 100 70 387l98 412q45 193 64 295l14 12l131 4l8 -12q-12 -49 -45 -176t-49 -197q-29 -129 -78 -317q-70 -289 -69 -398q0 -78 29.5 -134t78.5 -86t102.5 -42t110.5 -12q203 0 320 127q68 70 107.5 187.5t100.5 389.5l70 310l70 342l16 14l111 4l10 -14 l-86 -367l-76 -321q-78 -322 -110.5 -422.5t-98.5 -180.5q-152 -180 -442 -180q-117 0 -199 27q-137 41 -197.5 139t-60.5 209zM676 1802l8 19h184l15 -15l65 -254l-10 -16h-92l-15 8q-74 125 -155 258z" />
<glyph unicode="&#xda;" horiz-adv-x="1366" d="M94 342q0 100 70 387l98 412q45 193 64 295l14 12l131 4l8 -12q-12 -49 -45 -176t-49 -197q-29 -129 -78 -317q-70 -289 -69 -398q0 -78 29.5 -134t78.5 -86t102.5 -42t110.5 -12q203 0 320 127q68 70 107.5 187.5t100.5 389.5l70 310l70 342l16 14l111 4l10 -14 l-86 -367l-76 -321q-78 -322 -110.5 -422.5t-98.5 -180.5q-152 -180 -442 -180q-117 0 -199 27q-137 41 -197.5 139t-60.5 209zM784 1550q145 221 166 258l21 11l194 4l9 -19q-49 -49 -94.5 -92t-69.5 -67l-99 -101l-22 -10l-98 2z" />
<glyph unicode="&#xdb;" horiz-adv-x="1366" d="M94 342q0 100 70 387l98 412q45 193 64 295l14 12l131 4l8 -12q-12 -49 -45 -176t-49 -197q-29 -129 -78 -317q-70 -289 -69 -398q0 -78 29.5 -134t78.5 -86t102.5 -42t110.5 -12q203 0 320 127q68 70 107.5 187.5t100.5 389.5l70 310l70 342l16 14l111 4l10 -14 l-86 -367l-76 -321q-78 -322 -110.5 -422.5t-98.5 -180.5q-152 -180 -442 -180q-117 0 -199 27q-137 41 -197.5 139t-60.5 209zM584 1552q39 49 116 136q57 66 103 124l22 11q20 0 55 -1t52 -1q72 0 106 2l17 -13l98 -258l-12 -14l-123 -6l-14 12l-86 207 q-135 -139 -195 -209l-23 -8l-108 2z" />
<glyph unicode="&#xdc;" horiz-adv-x="1366" d="M94 342q0 100 70 387l98 412q45 193 64 295l14 12l131 4l8 -12q-12 -49 -45 -176t-49 -197q-29 -129 -78 -317q-70 -289 -69 -398q0 -78 29.5 -134t78.5 -86t102.5 -42t110.5 -12q203 0 320 127q68 70 107.5 187.5t100.5 389.5l70 310l70 342l16 14l111 4l10 -14 l-86 -367l-76 -321q-78 -322 -110.5 -422.5t-98.5 -180.5q-152 -180 -442 -180q-117 0 -199 27q-137 41 -197.5 139t-60.5 209zM569 1581l35 145l17 19l149 4l14 -12l-32 -150l-17 -14l-155 -6zM1010 1581q18 63 32 150l17 14l151 6l15 -10q-20 -76 -33 -154l-18 -12 l-156 -8z" />
<glyph unicode="&#xdd;" horiz-adv-x="1024" d="M160 1430l8 14l131 6l12 -10q92 -369 193 -738l272 379l254 359l12 8l134 -2l8 -12q-223 -289 -246 -322l-401 -545l-52 -229l-67 -326l-17 -12l-120 -4l-11 14q78 307 107 439q12 49 26 131l-135 475zM614 1550q145 221 166 258l21 11l194 4l9 -19q-49 -49 -94.5 -92 t-69.5 -67l-99 -101l-22 -10l-98 2z" />
<glyph unicode="&#xde;" horiz-adv-x="1067" d="M0 10q8 43 32.5 143.5t30.5 125.5l97 428q123 549 153 729l17 12q63 -2 127 2l8 -12q-25 -104 -55 -238l112 2q190 4 277 -14q133 -29 200.5 -120t67.5 -224q0 -205 -143 -344q-55 -55 -119 -88t-150 -47.5t-146 -18.5t-177 -6h-115q-4 -25 -65 -326l-17 -14 q-66 2 -127 -2zM240 449h59q201 0 299 18q94 18 162.5 60t101.5 85t51.5 97.5t20.5 79t2 49.5q0 260 -332 260q-72 0 -139 -2l-80 -2q-74 -319 -100 -437l-39 -178z" />
<glyph unicode="&#xdf;" d="M-10 6l88 395l110 506q76 330 100.5 413t69.5 148q109 158 344 158q92 0 160 -28.5t99.5 -63.5t50 -82t20.5 -69.5t2 -41.5q0 -74 -35.5 -146.5t-71.5 -112.5t-110 -113l-57 -54q-84 -76 -84 -98q0 -16 74 -108l53 -58q49 -57 75.5 -92t56.5 -102.5t30 -132.5 q0 -49 -17.5 -102.5t-57.5 -110t-124 -93t-201 -36.5q-113 0 -215 49l-6 18l27 107l14 6q35 -27 53.5 -39t56 -24.5t83.5 -12.5q113 0 185.5 67.5t72.5 159.5q0 111 -127 248l-111 125q-74 86 -74 117q0 35 72 102l57 51q88 80 131 126t83 116t40 135q0 70 -52 130.5 t-159 60.5q-219 0 -297 -258q-43 -143 -102 -430l-98 -484l-66 -340l-16 -12l-117 -6z" />
<glyph unicode="&#xe0;" d="M16 383q0 145 73 305t220 252q82 51 180.5 79t153.5 31t143 3l234 -4l8 -15l-90 -403q-78 -346 -121 -619l-14 -14l-111 -2l-10 14l14 76q-147 -104 -301 -104q-164 0 -271.5 106.5t-107.5 294.5zM145 387q0 -127 70 -212t201 -85q178 0 307 129l160 727q-70 4 -109 4 q-342 0 -506 -213q-55 -70 -89 -168t-34 -182zM483 1460l13 21h172l14 -13q16 -168 35 -286l-12 -15l-74 -4l-17 15q-59 139 -131 282z" />
<glyph unicode="&#xe1;" d="M16 383q0 145 73 305t220 252q82 51 180.5 79t153.5 31t143 3l234 -4l8 -15l-90 -403q-78 -346 -121 -619l-14 -14l-111 -2l-10 14l14 76q-147 -104 -301 -104q-164 0 -271.5 106.5t-107.5 294.5zM145 387q0 -127 70 -212t201 -85q178 0 307 129l160 727q-70 4 -109 4 q-342 0 -506 -213q-55 -70 -89 -168t-34 -182zM575 1180q33 45 185 293l18 12q66 -4 101 -4q14 0 40.5 1t38.5 1l7 -15q-2 -2 -50.5 -52t-99.5 -106.5t-88 -99.5q-4 -6 -15.5 -19t-17.5 -20l-20 -10l-92 4z" />
<glyph unicode="&#xe2;" d="M16 383q0 145 73 305t220 252q82 51 180.5 79t153.5 31t143 3l234 -4l8 -15l-90 -403q-78 -346 -121 -619l-14 -14l-111 -2l-10 14l14 76q-147 -104 -301 -104q-164 0 -271.5 106.5t-107.5 294.5zM145 387q0 -127 70 -212t201 -85q178 0 307 129l160 727q-70 4 -109 4 q-342 0 -506 -213q-55 -70 -89 -168t-34 -182zM401 1182q6 6 88 106q84 100 140 178l22 15h156l16 -13l72 -290l-14 -13h-99l-18 13l-49 221q-119 -147 -187 -228l-20 -8q-49 4 -51 4q-8 0 -23.5 -1t-21.5 -1z" />
<glyph unicode="&#xe3;" d="M16 383q0 145 73 305t220 252q82 51 180.5 79t153.5 31t143 3l234 -4l8 -15l-90 -403q-78 -346 -121 -619l-14 -14l-111 -2l-10 14l14 76q-147 -104 -301 -104q-164 0 -271.5 106.5t-107.5 294.5zM145 387q0 -127 70 -212t201 -85q178 0 307 129l160 727q-70 4 -109 4 q-342 0 -506 -213q-55 -70 -89 -168t-34 -182zM338 1204l31 115l12 22q92 61 172 62q68 0 156 -53l22 -13q53 -33 90 -32q76 0 168 88l15 -7l-29 -114l-10 -17q-88 -70 -174 -69q-55 0 -142 43l-22 14q-66 43 -109 43q-68 0 -166 -88z" />
<glyph unicode="&#xe4;" d="M16 383q0 145 73 305t220 252q82 51 180.5 79t153.5 31t143 3l234 -4l8 -15l-90 -403q-78 -346 -121 -619l-14 -14l-111 -2l-10 14l14 76q-147 -104 -301 -104q-164 0 -271.5 106.5t-107.5 294.5zM145 387q0 -127 70 -212t201 -85q178 0 307 129l160 727q-70 4 -109 4 q-342 0 -506 -213q-55 -70 -89 -168t-34 -182zM408 1219l34 145l15 12l147 6l8 -10l-34 -149l-17 -11l-145 -6zM788 1217l35 145l15 14l141 6l10 -12l-33 -145l-16 -13l-137 -4z" />
<glyph unicode="&#xe5;" d="M16 383q0 145 73 305t220 252q82 51 180.5 79t153.5 31t143 3l234 -4l8 -15l-90 -403q-78 -346 -121 -619l-14 -14l-111 -2l-10 14l14 76q-147 -104 -301 -104q-164 0 -271.5 106.5t-107.5 294.5zM145 387q0 -127 70 -212t201 -85q178 0 307 129l160 727q-70 4 -109 4 q-342 0 -506 -213q-55 -70 -89 -168t-34 -182zM502 1331q0 104 70.5 171t175.5 67q82 0 136 -45t54 -129q2 -94 -61.5 -166t-182.5 -72q-80 0 -136 42t-56 132zM612 1323q0 -41 21.5 -67.5t62.5 -26.5q86 0 119 106q12 45 12 68q0 41 -21.5 65.5t-60.5 24.5 q-41 0 -70.5 -23.5t-41.5 -57.5t-16.5 -55.5t-4.5 -33.5z" />
<glyph unicode="&#xe6;" horiz-adv-x="1705" d="M-39 276q0 63 15.5 112.5t49 85.5t46 46t47.5 35q57 39 166.5 60.5t178 24.5t193.5 7h54q37 121 37 170q0 147 -216 148q-80 0 -151.5 -21.5t-103 -42t-91.5 -61.5l-16 8l35 131l12 14q158 76 334 76q141 0 213 -40t96 -124q41 49 84 82q133 90 285 90q180 0 278 -90 q104 -92 105 -270q0 -68 -25 -166l-18 -14q-449 8 -756 4q-20 -78 -20 -133q0 -133 78.5 -228.5t246.5 -95.5q78 0 164 29q92 30 182 108l17 -8l-43 -131l-13 -19q-154 -88 -319 -88q-172 0 -287 84q-45 33 -88 103q-201 -186 -444 -187q-164 0 -245 90.5t-81 210.5zM90 283 q0 -27 8 -54.5t30 -62.5t72 -57.5t122 -22.5q86 0 178 37q84 35 186 135q-16 78 -16 131q0 50 16 156l-61 2q-178 -8 -256 -18.5t-136 -39.5q-143 -70 -143 -206zM838 643h641q10 55 10 102q0 102 -65.5 167t-188.5 65q-170 0 -293 -135q-59 -66 -104 -199z" />
<glyph unicode="&#xe7;" horiz-adv-x="894" d="M23 418q0 104 35.5 214.5t103 211t185.5 165t265 64.5q180 0 295 -82l6 -14q-23 -59 -36 -111l-21 -8q-70 106 -250 107q-115 0 -207 -58.5t-142 -145.5t-75.5 -175t-25.5 -162q0 -53 14 -107.5t47 -108.5t96.5 -88t149.5 -34q157 0 280 109l15 -7q-25 -74 -43 -137 l-10 -14q-109 -61 -256 -62q-207 0 -316.5 124t-109.5 319zM166 -360q68 86 94 124q49 63 94 130l21 12q18 0 52 -1t44 -1l10 -15q-8 -18 -67.5 -125.5t-69.5 -128.5l-20 -16q-49 4 -74 4q-35 0 -76 -4z" />
<glyph unicode="&#xe8;" horiz-adv-x="1067" d="M20 401q0 115 34 228.5t100.5 215t181.5 165t260 63.5q156 0 264.5 -84t108.5 -274q0 -72 -25 -174l-12 -11q-283 4 -426 5q-100 0 -346 -5q-12 -94 -13 -127q0 -152 89.5 -233.5t246.5 -81.5q74 0 141.5 22.5t104.5 45t92 65.5l17 -8l-43 -135l-11 -15 q-55 -31 -87.5 -45t-97 -28.5t-138.5 -14.5q-213 0 -327 115t-114 311zM188 637h646q12 70 12 102q0 88 -58.5 160t-197.5 72q-184 0 -305 -152q-54 -63 -97 -182zM463 1460l12 21h172l15 -13q16 -168 34 -286l-12 -15l-74 -4l-16 15q-59 139 -131 282z" />
<glyph unicode="&#xe9;" horiz-adv-x="1067" d="M20 401q0 115 34 228.5t100.5 215t181.5 165t260 63.5q156 0 264.5 -84t108.5 -274q0 -72 -25 -174l-12 -11q-283 4 -426 5q-100 0 -346 -5q-12 -94 -13 -127q0 -152 89.5 -233.5t246.5 -81.5q74 0 141.5 22.5t104.5 45t92 65.5l17 -8l-43 -135l-11 -15 q-55 -31 -87.5 -45t-97 -28.5t-138.5 -14.5q-213 0 -327 115t-114 311zM188 637h646q12 70 12 102q0 88 -58.5 160t-197.5 72q-184 0 -305 -152q-54 -63 -97 -182zM555 1180q33 45 184 293l19 12q66 -4 100 -4q14 0 41 1t39 1l6 -15q-2 -2 -50 -52t-99.5 -106.5t-87.5 -99.5 q-6 -6 -16.5 -19t-16.5 -20l-21 -10l-92 4z" />
<glyph unicode="&#xea;" horiz-adv-x="1067" d="M20 401q0 115 34 228.5t100.5 215t181.5 165t260 63.5q156 0 264.5 -84t108.5 -274q0 -72 -25 -174l-12 -11q-283 4 -426 5q-100 0 -346 -5q-12 -94 -13 -127q0 -152 89.5 -233.5t246.5 -81.5q74 0 141.5 22.5t104.5 45t92 65.5l17 -8l-43 -135l-11 -15 q-55 -31 -87.5 -45t-97 -28.5t-138.5 -14.5q-213 0 -327 115t-114 311zM188 637h646q12 70 12 102q0 88 -58.5 160t-197.5 72q-184 0 -305 -152q-54 -63 -97 -182zM381 1182q6 6 88 106q84 100 139 178l23 15h155l17 -13l71 -290l-14 -13h-98l-19 13l-49 221 q-121 -147 -186 -228l-21 -8q-49 4 -51 4q-8 0 -23.5 -1t-21.5 -1z" />
<glyph unicode="&#xeb;" horiz-adv-x="1067" d="M20 401q0 115 34 228.5t100.5 215t181.5 165t260 63.5q156 0 264.5 -84t108.5 -274q0 -72 -25 -174l-12 -11q-283 4 -426 5q-100 0 -346 -5q-12 -94 -13 -127q0 -152 89.5 -233.5t246.5 -81.5q74 0 141.5 22.5t104.5 45t92 65.5l17 -8l-43 -135l-11 -15 q-55 -31 -87.5 -45t-97 -28.5t-138.5 -14.5q-213 0 -327 115t-114 311zM188 637h646q12 70 12 102q0 88 -58.5 160t-197.5 72q-184 0 -305 -152q-54 -63 -97 -182zM369 1219l34 145l15 12l147 6l8 -10l-34 -149l-17 -11l-145 -6zM750 1217l34 145l15 14l141 6l10 -12 l-32 -145l-17 -13l-137 -4z" />
<glyph unicode="&#xec;" horiz-adv-x="425" d="M-18 10q61 240 124 541l31 145q39 170 64 330l14 14l125 17l12 -13q-59 -221 -119 -505l-53 -252l-51 -275l-14 -12l-121 -2zM141 1460l13 21h172l14 -13q16 -168 35 -286l-13 -15l-73 -4l-17 15q-59 139 -131 282z" />
<glyph unicode="&#xed;" horiz-adv-x="425" d="M-18 10q61 240 124 541l31 145q39 170 64 330l14 14l125 17l12 -13q-59 -221 -119 -505l-53 -252l-51 -275l-14 -12l-121 -2zM233 1180q33 45 185 293l18 12q66 -4 101 -4q12 0 38.5 1t40.5 1l7 -15q-2 -2 -50.5 -52t-99.5 -106.5t-88 -99.5q-4 -6 -16.5 -19t-16.5 -20 l-20 -10l-92 4z" />
<glyph unicode="&#xee;" horiz-adv-x="425" d="M-18 10q61 240 124 541l31 145q39 170 64 330l14 14l125 17l12 -13q-59 -221 -119 -505l-53 -252l-51 -275l-14 -12l-121 -2zM59 1182q6 6 88 106q84 100 140 178l22 15h156l16 -13l72 -290l-14 -13h-99l-18 13l-49 221q-121 -147 -187 -228l-20 -8q-49 4 -51 4 q-8 0 -23.5 -1t-21.5 -1z" />
<glyph unicode="&#xef;" horiz-adv-x="425" d="M-18 10q61 240 124 541l31 145q39 170 64 330l14 14l125 17l12 -13q-59 -221 -119 -505l-53 -252l-51 -275l-14 -12l-121 -2zM47 1219l35 145l14 12l148 6l8 -10l-35 -149l-16 -11l-146 -6zM428 1217l35 145l14 14l141 6l11 -12l-33 -145l-16 -13l-138 -4z" />
<glyph unicode="&#xf0;" d="M18 379q0 74 14.5 158t54.5 181t100.5 173t163 127t231.5 51q205 0 280 -123q-12 186 -112 379q-258 -72 -373 -117l-17 9q-12 37 -28 75l12 15q109 27 225 61l131 39q-72 106 -182 188l6 13l56 12l51 12l16 -4q92 -74 172 -186q139 41 180 59l21 -8q6 -23 31 -70 l-11 -20q-117 -27 -168 -43q135 -242 135.5 -551t-106.5 -524q-154 -307 -491 -308q-182 0 -285 103q-106 104 -107 299zM150 373q0 -152 81.5 -223.5t200.5 -69.5q109 2 192 60.5t126 136t69.5 171t33.5 149.5t7 87q0 106 -46 175t-103.5 90.5t-122.5 21.5 q-129 0 -223.5 -75t-137.5 -183.5t-60 -194.5t-17 -145z" />
<glyph unicode="&#xf1;" d="M-18 8l81 350l37 164q63 287 97 504l14 14l127 21l8 -12l-29 -101q57 39 93 59.5t110 44t150 23.5q131 0 209.5 -66.5t78.5 -191.5q0 -76 -63 -387l-33 -141l-53 -277l-14 -12l-123 -4l-8 12l90 381l51 244q25 113 24 160q0 84 -50 128t-140 44q-78 0 -150.5 -27 t-104.5 -48.5t-91 -66.5q-86 -383 -168 -811l-16 -12l-117 -6zM338 1204l31 115l12 22q92 61 172 62q68 0 156 -53l22 -13q53 -33 90 -32q76 0 168 88l15 -7l-29 -114l-10 -17q-88 -70 -174 -69q-55 0 -142 43l-22 14q-66 43 -109 43q-68 0 -166 -88z" />
<glyph unicode="&#xf2;" d="M18 377q0 80 15.5 165t56.5 182t103.5 173t168 126t236.5 50q203 0 300 -111.5t97 -289.5q1 -100 -32 -215q-14 -49 -27.5 -90t-57.5 -120t-97.5 -132.5t-149.5 -96.5t-211 -43q-195 0 -298.5 104.5t-103.5 297.5zM150 373q0 -133 71.5 -213t204.5 -80q129 0 215 70 q138 110 197 360q25 98 24 172q0 150 -81 219.5t-187 69.5q-109 0 -194 -53.5t-130 -126t-74.5 -162.5t-37.5 -151.5t-8 -104.5zM483 1460l13 21h172l14 -13q16 -168 35 -286l-12 -15l-74 -4l-17 15q-59 139 -131 282z" />
<glyph unicode="&#xf3;" d="M18 377q0 80 15.5 165t56.5 182t103.5 173t168 126t236.5 50q203 0 300 -111.5t97 -289.5q1 -100 -32 -215q-14 -49 -27.5 -90t-57.5 -120t-97.5 -132.5t-149.5 -96.5t-211 -43q-195 0 -298.5 104.5t-103.5 297.5zM150 373q0 -133 71.5 -213t204.5 -80q129 0 215 70 q138 110 197 360q25 98 24 172q0 150 -81 219.5t-187 69.5q-109 0 -194 -53.5t-130 -126t-74.5 -162.5t-37.5 -151.5t-8 -104.5zM575 1180q33 45 185 293l18 12q66 -4 101 -4q14 0 40.5 1t38.5 1l7 -15q-2 -2 -50.5 -52t-99.5 -106.5t-88 -99.5q-4 -6 -15.5 -19t-17.5 -20 l-20 -10l-92 4z" />
<glyph unicode="&#xf4;" d="M18 377q0 80 15.5 165t56.5 182t103.5 173t168 126t236.5 50q203 0 300 -111.5t97 -289.5q1 -100 -32 -215q-14 -49 -27.5 -90t-57.5 -120t-97.5 -132.5t-149.5 -96.5t-211 -43q-195 0 -298.5 104.5t-103.5 297.5zM150 373q0 -133 71.5 -213t204.5 -80q129 0 215 70 q138 110 197 360q25 98 24 172q0 150 -81 219.5t-187 69.5q-109 0 -194 -53.5t-130 -126t-74.5 -162.5t-37.5 -151.5t-8 -104.5zM401 1182q6 6 88 106q84 100 140 178l22 15h156l16 -13l72 -290l-14 -13h-99l-18 13l-49 221q-119 -147 -187 -228l-20 -8q-49 4 -51 4 q-8 0 -23.5 -1t-21.5 -1z" />
<glyph unicode="&#xf5;" d="M18 377q0 80 15.5 165t56.5 182t103.5 173t168 126t236.5 50q203 0 300 -111.5t97 -289.5q1 -100 -32 -215q-14 -49 -27.5 -90t-57.5 -120t-97.5 -132.5t-149.5 -96.5t-211 -43q-195 0 -298.5 104.5t-103.5 297.5zM150 373q0 -133 71.5 -213t204.5 -80q129 0 215 70 q138 110 197 360q25 98 24 172q0 150 -81 219.5t-187 69.5q-109 0 -194 -53.5t-130 -126t-74.5 -162.5t-37.5 -151.5t-8 -104.5zM338 1204l31 115l12 22q92 61 172 62q68 0 156 -53l22 -13q53 -33 90 -32q76 0 168 88l15 -7l-29 -114l-10 -17q-88 -70 -174 -69 q-55 0 -142 43l-22 14q-66 43 -109 43q-68 0 -166 -88z" />
<glyph unicode="&#xf6;" d="M18 377q0 80 15.5 165t56.5 182t103.5 173t168 126t236.5 50q203 0 300 -111.5t97 -289.5q1 -100 -32 -215q-14 -49 -27.5 -90t-57.5 -120t-97.5 -132.5t-149.5 -96.5t-211 -43q-195 0 -298.5 104.5t-103.5 297.5zM150 373q0 -133 71.5 -213t204.5 -80q129 0 215 70 q138 110 197 360q25 98 24 172q0 150 -81 219.5t-187 69.5q-109 0 -194 -53.5t-130 -126t-74.5 -162.5t-37.5 -151.5t-8 -104.5zM381 1219l35 145l14 12l148 6l8 -10l-35 -149l-16 -11l-146 -6zM762 1217l35 145l14 14l141 6l11 -12l-33 -145l-17 -13l-137 -4z" />
<glyph unicode="&#xf7;" horiz-adv-x="1366" d="M-27 535v120h1364v-120h-1364zM565 328q0 37 26.5 65.5t67.5 28.5t68 -27.5t27 -66.5q0 -37 -26 -64.5t-69 -27.5q-41 0 -67.5 26.5t-26.5 65.5zM565 860q0 37 26.5 65.5t67.5 28.5t68 -27.5t27 -66.5q0 -37 -26 -64.5t-69 -27.5q-41 0 -67.5 26.5t-26.5 65.5z" />
<glyph unicode="&#xf8;" d="M-152 102l7 21l88 55l88 68q-12 78 -13 139q0 47 9.5 109.5t35 155.5t86 185.5t146.5 151.5q127 86 307 86q219 0 334 -164l41 31l106 80h23l47 -59l-6 -25q-58 -37 -111 -76l-59 -43q18 -102 18 -149q0 -33 -9 -92.5t-34.5 -159t-89 -197.5t-153.5 -160 q-121 -84 -301 -84q-233 0 -340 177l-72 -52l-80 -63h-20zM145 330l689 506q-16 37 -46 65q-76 76 -198 76q-84 0 -153.5 -34t-110.5 -74t-75 -104.5t-45 -95t-26 -75.5q-35 -114 -35 -264zM172 227q25 -45 43 -70.5t74.5 -54t136.5 -28.5q162 0 262 114q88 96 132 239.5 t44 240.5q0 42 -2 65z" />
<glyph unicode="&#xf9;" d="M51 264q0 84 53 322l48 202l51 248l14 13l125 6l8 -13q-92 -365 -121 -495q-43 -199 -43 -264q0 -90 54.5 -140.5t142.5 -50.5q76 0 145.5 26.5t103.5 51.5t87 72l69 315q61 281 97 477l16 15l119 6l8 -15l-110 -471l-52 -237q-39 -184 -59 -318l-14 -12l-119 -8l-8 14 l24 96q-172 -123 -338 -122q-133 0 -217 70.5t-84 211.5zM483 1460l13 21h172l14 -13q16 -168 35 -286l-12 -15l-74 -4l-17 15q-59 139 -131 282z" />
<glyph unicode="&#xfa;" d="M51 264q0 84 53 322l48 202l51 248l14 13l125 6l8 -13q-92 -365 -121 -495q-43 -199 -43 -264q0 -90 54.5 -140.5t142.5 -50.5q76 0 145.5 26.5t103.5 51.5t87 72l69 315q61 281 97 477l16 15l119 6l8 -15l-110 -471l-52 -237q-39 -184 -59 -318l-14 -12l-119 -8l-8 14 l24 96q-172 -123 -338 -122q-133 0 -217 70.5t-84 211.5zM575 1180q33 45 185 293l18 12q66 -4 101 -4q14 0 40.5 1t38.5 1l7 -15q-2 -2 -50.5 -52t-99.5 -106.5t-88 -99.5q-4 -6 -15.5 -19t-17.5 -20l-20 -10l-92 4z" />
<glyph unicode="&#xfb;" d="M51 264q0 84 53 322l48 202l51 248l14 13l125 6l8 -13q-92 -365 -121 -495q-43 -199 -43 -264q0 -90 54.5 -140.5t142.5 -50.5q76 0 145.5 26.5t103.5 51.5t87 72l69 315q61 281 97 477l16 15l119 6l8 -15l-110 -471l-52 -237q-39 -184 -59 -318l-14 -12l-119 -8l-8 14 l24 96q-172 -123 -338 -122q-133 0 -217 70.5t-84 211.5zM401 1182q6 6 88 106q84 100 140 178l22 15h156l16 -13l72 -290l-14 -13h-99l-18 13l-49 221q-119 -147 -187 -228l-20 -8q-49 4 -51 4q-8 0 -23.5 -1t-21.5 -1z" />
<glyph unicode="&#xfc;" d="M51 264q0 84 53 322l48 202l51 248l14 13l125 6l8 -13q-92 -365 -121 -495q-43 -199 -43 -264q0 -90 54.5 -140.5t142.5 -50.5q76 0 145.5 26.5t103.5 51.5t87 72l69 315q61 281 97 477l16 15l119 6l8 -15l-110 -471l-52 -237q-39 -184 -59 -318l-14 -12l-119 -8l-8 14 l24 96q-172 -123 -338 -122q-133 0 -217 70.5t-84 211.5zM371 1219l35 145l14 12l147 6l8 -10l-34 -149l-17 -11l-145 -6zM752 1217l34 145l15 14l141 6l10 -12l-32 -145l-17 -13l-137 -4z" />
<glyph unicode="&#xfd;" horiz-adv-x="894" d="M-90 -477q219 340 315 508l-49 342l-55 350l-55 313l12 15l119 6l16 -8l41 -340l70 -519l227 390q188 330 258 460l16 11h129l9 -17q-49 -80 -140 -223q-31 -51 -110.5 -184t-110.5 -183l-227 -378q-250 -430 -305 -545l-19 -15l-133 2zM471 1180q33 45 184 293l19 12 q66 -4 100 -4q12 0 39 1t41 1l6 -15q-2 -2 -50 -52t-99.5 -106.5t-87.5 -99.5q-4 -6 -15.5 -19t-17.5 -20l-21 -10l-92 4z" />
<glyph unicode="&#xfe;" d="M-139 -469q135 555 162 678l141 680q90 408 115 541q16 82 26 163l17 15q57 6 133 22l8 -12q-4 -16 -60 -236l-90 -413q154 98 305 98q170 0 273.5 -119t103.5 -299q0 -213 -129 -387q-201 -266 -626 -266q-57 0 -134 4q-20 -80 -53 -240q-2 -8 -11 -62t-18.5 -103.5 t-13.5 -65.5l-12 -10q-59 2 -125 0zM131 109q49 -8 107 -9q195 0 327 68q131 66 215 193.5t84 281.5q0 133 -73.5 219t-208.5 86q-186 0 -303 -133z" />
<glyph unicode="&#xff;" horiz-adv-x="894" d="M-90 -477q219 340 315 508l-49 342l-55 350l-55 313l12 15l119 6l16 -8l41 -340l70 -519l227 390q188 330 258 460l16 11h129l9 -17q-49 -80 -140 -223q-31 -51 -110.5 -184t-110.5 -183l-227 -378q-250 -430 -305 -545l-19 -15l-133 2zM285 1219l34 145l15 12l147 6 l8 -10l-34 -149l-17 -11l-145 -6zM666 1217l34 145l15 14l141 6l10 -12l-32 -145l-17 -13l-137 -4z" />
<glyph unicode="&#x152;" horiz-adv-x="1961" d="M68 553q0 158 49 310.5t119 256.5q76 113 171 183.5t214.5 100.5t212 38t235.5 8q121 0 285 -4h260l395 6l8 -12l-28 -101l-17 -8q-336 8 -641 8l-119 -528h408l225 4l10 -12l-26 -90l-21 -13l-235 5l-385 -5l-55 -247l-74 -342q317 0 676 10l12 -10l-29 -103l-14 -12 l-418 4h-235q-82 -2 -246 -2q-231 0 -358.5 26.5t-227.5 120.5q-152 141 -151 408zM205 561q0 -98 38 -207.5t140 -175.5q72 -45 172 -58.5t272 -13.5l95 3l90 403l96 440l84 389l-109 2q-141 -2 -219 -8t-175 -28.5t-167.5 -72.5t-136.5 -134q-92 -117 -136 -266.5 t-44 -272.5z" />
<glyph unicode="&#x153;" horiz-adv-x="1878" d="M18 379q0 74 15.5 158t56.5 181t102.5 175t166 129t235.5 51q125 0 215 -43q49 -25 84 -62.5t48 -63t30 -66.5q145 236 446 235q164 0 264.5 -92t100.5 -270q0 -57 -25 -164l-12 -15q-33 0 -98.5 -1t-98.5 -1q-25 0 -171 2.5t-175 2.5q-113 0 -231 -7q-14 -82 -15 -118 q0 -156 93.5 -239t240.5 -83q178 0 346 137l15 -8l-45 -137l-11 -14q-61 -41 -127 -60q-102 -29 -202 -29q-139 0 -236 54q-127 66 -164 215q-20 -35 -33.5 -56.5t-54.5 -67.5t-84 -72.5t-117.5 -50.5t-160.5 -24q-184 0 -291 101.5t-107 302.5zM145 375q0 -143 76 -219 t201 -76q182 0 287.5 133t144.5 346q14 72 14 123q0 82 -26.5 140.5t-70.5 88t-88 43t-89 13.5q-94 0 -164 -33q-80 -37 -140.5 -115t-89 -166t-42 -158.5t-13.5 -119.5zM997 637h650q12 66 12 92q0 131 -76 187.5t-186 56.5q-115 0 -213 -68q-55 -39 -96 -93t-56 -86 t-35 -89z" />
<glyph unicode="&#x178;" horiz-adv-x="1024" d="M160 1430l8 14l131 6l12 -10q92 -369 193 -738l272 379l254 359l12 8l134 -2l8 -12q-223 -289 -246 -322l-401 -545l-52 -229l-67 -326l-17 -12l-120 -4l-11 14q78 307 107 439q12 49 26 131l-135 475zM395 1581l35 145l16 19l150 4l14 -12l-32 -150l-17 -14l-155 -6z M836 1581q18 63 32 150l17 14l151 6l15 -10q-20 -76 -33 -154l-19 -12l-155 -8z" />
<glyph unicode="&#x2c6;" horiz-adv-x="598" d="M51 1182q6 6 88 106q84 100 140 178l22 15h156l16 -13l72 -290l-15 -13h-98l-18 13l-49 221q-119 -147 -187 -228l-20 -8q-49 4 -52 4q-8 0 -23 -1t-22 -1z" />
<glyph unicode="&#x2dc;" horiz-adv-x="598" d="M-33 1204l31 115l12 22q92 61 172 62q68 0 156 -53l22 -13q53 -33 91 -32q76 0 167 88l15 -7l-29 -114l-10 -17q-86 -70 -174 -69q-55 0 -141 43l-23 14q-63 43 -109 43q-68 0 -165 -88z" />
<glyph unicode="&#x2000;" horiz-adv-x="964" />
<glyph unicode="&#x2001;" horiz-adv-x="1929" />
<glyph unicode="&#x2002;" horiz-adv-x="964" />
<glyph unicode="&#x2003;" horiz-adv-x="1929" />
<glyph unicode="&#x2004;" horiz-adv-x="643" />
<glyph unicode="&#x2005;" horiz-adv-x="482" />
<glyph unicode="&#x2006;" horiz-adv-x="321" />
<glyph unicode="&#x2007;" horiz-adv-x="321" />
<glyph unicode="&#x2008;" horiz-adv-x="241" />
<glyph unicode="&#x2009;" horiz-adv-x="385" />
<glyph unicode="&#x200a;" horiz-adv-x="107" />
<glyph unicode="&#x2010;" horiz-adv-x="598" d="M-10 532l33 95l20 16l170 -4h113l198 4l11 -12l-35 -105l-19 -10l-194 2h-105l-182 -2z" />
<glyph unicode="&#x2011;" horiz-adv-x="598" d="M-10 532l33 95l20 16l170 -4h113l198 4l11 -12l-35 -105l-19 -10l-194 2h-105l-182 -2z" />
<glyph unicode="&#x2012;" horiz-adv-x="598" d="M-10 532l33 95l20 16l170 -4h113l198 4l11 -12l-35 -105l-19 -10l-194 2h-105l-182 -2z" />
<glyph unicode="&#x2013;" horiz-adv-x="1193" d="M-12 532l37 95l20 16l328 -6l327 2h422l11 -12l-35 -101l-19 -12l-350 4h-731z" />
<glyph unicode="&#x2014;" horiz-adv-x="1449" d="M-10 532q12 31 35 95l18 16q45 -4 326 -4h512q413 0 495 2l10 -14q-4 -16 -16 -49t-16 -50l-21 -12h-185t-185 2h-541q-340 0 -424 -2z" />
<glyph unicode="&#x2018;" horiz-adv-x="425" d="M168 1071q92 150 221 387q8 14 17.5 31.5t20.5 39t17 34.5l21 14l74 2l10 -12q-117 -266 -199 -492l-18 -14l-158 -8z" />
<glyph unicode="&#x2019;" horiz-adv-x="425" d="M178 1065q109 248 201 494l16 12l158 8l8 -18q-31 -47 -88 -146q-59 -100 -188 -344l-21 -16l-76 -2z" />
<glyph unicode="&#x201a;" horiz-adv-x="425" d="M-182 -317q49 109 198 491l19 14q102 4 158 9l6 -19q-77 -119 -267 -471l-10 -20l-20 -15q-12 0 -37 -1t-37 -1z" />
<glyph unicode="&#x201c;" horiz-adv-x="724" d="M164 1071q86 135 198 348q2 4 78 144l21 14l74 2l12 -12q-102 -238 -199 -492l-18 -14l-158 -8zM463 1071q61 94 211 369q12 20 32.5 61t32.5 62l21 14l74 2l10 -12q-70 -156 -197 -492l-20 -14l-156 -8z" />
<glyph unicode="&#x201d;" horiz-adv-x="724" d="M178 1065q109 248 201 494l16 12l158 8l8 -18q-31 -47 -88 -146q-59 -100 -188 -344l-21 -16l-76 -2zM477 1065q100 233 201 494l16 12l158 8l8 -18q-92 -150 -192 -332q-10 -16 -39 -72.5t-45 -85.5l-21 -16l-76 -2z" />
<glyph unicode="&#x201e;" horiz-adv-x="724" d="M-182 -317q88 195 198 491l19 14l158 9l6 -19q-74 -115 -209 -364l-68 -127l-20 -15l-74 -2zM117 -317q94 213 198 491l19 14l158 9l6 -19q-98 -166 -150 -258q-25 -43 -127 -233l-20 -15l-74 -2z" />
<glyph unicode="&#x2022;" horiz-adv-x="681" d="M90 723q0 96 69.5 170t178.5 74q104 0 173 -71t69 -173t-68 -173t-172 -71q-106 0 -178 72t-72 172z" />
<glyph unicode="&#x2026;" horiz-adv-x="2048" d="M117 82q0 39 27.5 67.5t68.5 28.5t67.5 -27.5t26.5 -66.5q0 -41 -26.5 -68.5t-67.5 -27.5q-39 0 -67.5 26.5t-28.5 67.5zM801 82q0 39 27.5 67.5t68.5 28.5t67.5 -27.5t26.5 -66.5q0 -41 -26.5 -68.5t-67.5 -27.5q-39 0 -67.5 26.5t-28.5 67.5zM1485 82q0 39 27.5 67.5 t68.5 28.5t67.5 -27.5t26.5 -66.5q0 -41 -26.5 -68.5t-67.5 -27.5q-39 0 -67.5 26.5t-28.5 67.5z" />
<glyph unicode="&#x202f;" horiz-adv-x="385" />
<glyph unicode="&#x2039;" horiz-adv-x="425" d="M12 553l4 18q203 279 267 371l22 10h127l6 -14q-43 -53 -73.5 -93t-43 -55.5t-21.5 -27.5t-19 -25q-57 -82 -138 -184q23 -74 66 -203q2 -6 63 -178l-14 -16q-61 0 -111 -2l-12 12q-16 51 -30.5 100t-20.5 72q-72 203 -72 215z" />
<glyph unicode="&#x203a;" horiz-adv-x="425" d="M-92 170q41 51 71.5 91t42 54.5t21.5 26.5t20 27q57 82 138 184q-23 84 -66 203q-31 92 -61 178l12 16q61 0 111 2l14 -12q25 -88 51 -172q4 -14 21.5 -68.5t31.5 -101.5l17 -45l-4 -18q-184 -252 -267 -371l-20 -10h-129z" />
<glyph unicode="&#x205f;" horiz-adv-x="482" />
<glyph unicode="&#x20ac;" horiz-adv-x="1193" d="M20 510q25 41 37 76l15 14h139q6 100 37 213h-55q-68 0 -105 -2l-14 16q29 49 35 76l14 15h156q82 219 232.5 361t358.5 142q203 0 342 -116l7 -17l-52 -108l-18 -4q-37 43 -62.5 65.5t-84 44t-136.5 21.5q-147 0 -266 -108.5t-188 -283.5h129h381q57 0 88 5l16 -15 q-23 -37 -41 -84l-12 -10h-83t-177.5 1t-180.5 1h-155q-29 -109 -35 -215h31h157h238q57 0 88 4l14 -14q-23 -47 -39 -84l-12 -10q-8 0 -46 1t-105.5 1h-145.5h-137h-45q8 -186 84 -300t219 -114q59 0 108.5 9t87.5 30.5t59.5 35t52 42t34.5 32.5l14 -8l-47 -155l-14 -17 q-90 -49 -152.5 -67.5t-158.5 -18.5q-172 0 -290 137.5t-128 393.5h-68q-70 0 -106 -2z" />
<glyph unicode="&#x2122;" horiz-adv-x="1406" d="M104 1360v86h537v-86h-217v-594h-96v594h-224zM698 766v680h138l176 -559l176 559h137v-680h-94v444q4 41 4 140q-25 -84 -35 -119l-147 -465h-86l-148 465q-18 68 -35 117q4 -78 4 -138l5 -444h-95z" />
<glyph unicode="&#xe000;" horiz-adv-x="1054" d="M0 0v1055h1055v-1055h-1055z" />
<glyph unicode="&#xfb01;" horiz-adv-x="980" d="M20 10q14 66 51.5 223.5t47.5 204.5l117 508q-84 0 -156 -2l-10 12q8 27 24 86l15 13q68 -4 149 -4l33 149q14 63 20 92t21.5 80t30 74.5t40 57.5t54 49.5t71.5 26.5t97 11q45 0 112 -14l13 -16q-14 -45 -21 -88l-16 -11q-43 14 -84 15q-96 0 -133 -60.5t-80 -238.5 l-29 -127q14 0 100 1t103 1l10 -17l-25 -78l-16 -16q-94 4 -194 2q-135 -543 -201 -930l-17 -14q-39 2 -116 -2zM537 10q2 10 21.5 89t23.5 96q8 39 80 356l30 145q47 215 64 332l14 12q61 6 125 17l12 -13q-35 -123 -41 -155q-21 -78 -78 -350l-53 -252q-4 -25 -13 -71 t-13 -66q-6 -29 -15.5 -75t-11.5 -63l-12 -12q-41 2 -123 -2zM834 1397q14 51 30 125l19 16q16 2 127 16l16 -12q-12 -45 -16 -67q-12 -37 -17 -66l-16 -14q-31 -2 -131 -17z" />
<glyph unicode="&#xfb02;" horiz-adv-x="980" d="M27 6q10 49 51 223q20 84 45 207l110 510q-14 0 -153 -4l-12 12q12 37 24 86l14 15q72 -4 150 -4l31 151q14 72 22 108t26.5 91t40 82.5t55.5 57.5t81 42t109 12q41 0 110 -12l12 -16q-14 -45 -20 -88l-16 -13q-39 14 -82 15q-98 0 -135 -60.5t-78 -240.5l-27 -129 q25 2 97.5 3t105.5 1l10 -15q-11 -30 -23 -79l-16 -17q-82 2 -194 2q-125 -520 -195 -934l-16 -12q-57 0 -115 -4zM543 8l4 23q2 8 82 366l114 516q111 522 129 682l17 15q57 4 129 20l12 -12q-4 -23 -29.5 -129.5t-29.5 -126.5q-18 -72 -47 -215l-82 -371q-12 -63 -40 -190 t-42 -191q-43 -209 -74 -383l-16 -12q-61 0 -119 -4z" />
</font>
</defs>
</svg>
